<svg width="142" height="71" viewBox="0 0 142 71" fill="none" xmlns="http://www.w3.org/2000/svg">
<g clip-path="url(#clip0_1638_6860)">
<path d="M29.608 14.174C27.4603 14.8294 25.3633 15.6413 23.3335 16.6033C21.9907 17.2499 20.6802 17.9612 19.5263 18.9267C19.1866 19.2207 18.9406 19.1751 18.6478 18.8797C17.1198 17.3174 16.039 15.3712 15.5186 13.2452C15.3839 12.7147 15.7177 12.4428 16.1219 12.2018C18.188 10.9673 20.4064 10.0885 22.6936 9.38164C25.8995 8.40775 29.1813 7.70624 32.5043 7.28451C35.0741 6.94357 37.6469 6.75399 40.2226 6.89801C44.081 7.11404 47.8164 7.86942 50.9646 10.3413C53.2225 12.1136 54.4935 14.4224 54.7615 17.3322C55.2608 22.7418 52.8887 26.6892 48.6832 29.7519C48.2507 30.07 47.7994 30.3615 47.3317 30.6248C46.8368 30.8996 46.9129 31.1259 47.3083 31.4184C48.3918 32.2161 49.3325 33.1925 50.0904 34.3062C52.5797 37.9729 52.5797 41.8217 50.7508 45.7147C48.8736 49.7003 45.7488 52.5366 42.0515 54.7837C38.5372 56.9234 34.73 58.3534 30.6432 58.8501C26.6018 59.3395 22.6248 59.0617 18.8777 57.2556C16.5922 56.1755 14.6321 54.5079 13.1962 52.422C13.0346 52.2107 12.9312 51.9603 12.8965 51.6962C12.8618 51.432 12.897 51.1633 12.9985 50.9171C15.0485 44.9976 17.4031 39.2014 19.8573 33.445C22.064 28.272 24.3453 23.1313 27.1143 18.2272C27.7381 17.1221 28.4453 16.0625 29.1116 14.9823C29.2624 14.7633 29.3898 14.5414 29.608 14.174ZM44.04 46.3805L44.1864 46.2335C44.3908 46.1144 44.5422 45.9215 44.6096 45.6942C44.6253 45.6512 44.6533 45.6139 44.6901 45.5869L44.7018 45.5707C46.3389 43.6367 47.6055 41.5337 47.7973 38.9193C47.9877 36.3372 47.156 33.9682 44.7223 32.4986C44.5837 32.3994 44.4229 32.3359 44.2541 32.3139C44.0853 32.2919 43.9137 32.3119 43.7544 32.3722C39.9473 33.8418 35.9937 34.29 31.9508 34.2459C30.7794 34.2327 29.8203 33.9402 28.9359 33.2084C28.1349 32.5471 28.0792 32.572 27.6648 33.5023C25.8857 37.4967 24.1755 41.5205 22.6541 45.6222C21.9336 47.5635 21.1663 49.4931 20.7505 51.5403C20.6656 51.9694 20.7973 52.2089 21.1649 52.3397C21.7125 52.5337 22.2455 52.7806 22.8298 52.8629C24.4842 53.1154 26.1622 53.1751 27.8303 53.0407C29.67 52.9138 31.4942 52.6187 33.2804 52.159C37.0275 51.1626 40.432 49.4843 43.3737 46.9183C43.6227 46.8904 43.7617 46.7141 43.895 46.5289L44.04 46.3805ZM37.9251 28.0192C38.6075 28.0192 39.0965 28.0456 39.5768 27.9531C41.636 27.5759 43.6381 26.9338 45.5335 26.0426C47.5308 25.0917 49.3553 23.9072 50.7684 22.1511C52.076 20.5257 52.5255 18.6549 52.2092 16.6503C51.8929 14.6458 50.5678 13.3834 48.7652 12.6162C47.3214 12.0005 45.7927 11.805 44.2259 11.6889C41.968 11.5214 39.7701 11.7962 37.5737 12.2224C37.1842 12.2973 36.9982 12.4928 37.2633 12.8822C37.5283 13.2717 37.4653 13.6171 37.2135 14.0271C34.487 18.3859 32.355 23.0549 30.1966 27.7091C30.1219 27.8708 29.936 28.0721 30.1073 28.2382C30.2537 28.3851 30.4733 28.2661 30.6652 28.2382C32.027 28.0089 33.4092 27.9913 34.7827 27.8855C35.9015 27.7973 37.0041 28.0706 37.9251 28.0192Z" fill="#051C40"/>
<path d="M123.542 43.4427C122.431 45.1048 121.474 46.8684 120.263 48.4658C118.272 51.092 116.141 53.5536 113.131 55.0791C111.137 56.0902 109.311 55.373 108.125 54.0268C107.48 53.2867 107 52.4176 106.716 51.4771C106.025 49.2521 106.028 46.9624 106.486 44.736C107.912 37.8068 111.333 32.0018 116.635 27.3285C118.01 26.1175 119.546 25.2034 121.381 24.864C121.955 24.7581 122.496 24.7611 123.009 25.0491C124.683 25.9821 126.055 27.3776 126.963 29.07C127.232 29.5638 127.267 29.8621 126.572 30.0311C124.082 30.6336 122.067 32.1047 120.255 33.8521C116.311 37.6422 113.507 42.1245 112.242 47.5003C112 48.529 111.828 49.5725 111.981 50.6511C112.112 51.5594 112.678 51.9532 113.506 51.5829C115.162 50.8481 116.355 49.5342 117.468 48.1704C120.056 44.9976 122.154 41.5014 124.153 37.9317C125.845 34.9014 127.504 31.8534 129.005 28.7231C129.22 28.2749 129.477 28.1882 129.989 28.2823C131.191 28.5015 132.324 29.0053 133.293 29.7519C134.035 30.3147 134.11 30.6586 133.711 31.5154C131.743 35.7288 130.016 40.0288 128.91 44.564C128.38 46.7361 128.108 48.9302 128.254 51.1611C128.324 52.2192 128.604 53.2391 129.412 54.0121C129.705 54.2899 129.717 54.5162 129.336 54.672C127.834 55.2804 126.308 55.7536 124.65 55.3803C123.696 55.1658 123.063 54.5721 122.678 53.6874C122.069 52.2883 122.145 50.8084 122.277 49.3549C122.461 47.3578 123.07 45.4429 123.637 43.5265L123.62 43.356L123.542 43.4427Z" fill="#051C40"/>
<path d="M79.4596 50.5483C79.5606 47.277 80.2225 44.3554 81.0191 41.4647C83.3414 33.0276 86.4487 24.886 89.9 16.862C91.9309 12.1416 94.1611 7.51968 97.0472 3.24754C97.526 2.54065 98.0634 1.87199 98.5495 1.16805C98.8233 0.771253 99.1074 0.640452 99.595 0.812396C101.763 1.57332 103.791 2.68696 105.599 4.10872C106.067 4.47612 106.167 4.80238 105.735 5.31527C99.3036 12.9572 94.7263 21.6661 91.2471 30.9908C89.2147 36.4401 87.4224 41.9658 86.1558 47.6502C85.6239 49.9738 85.2472 52.3304 85.0283 54.7044C84.9243 55.9036 84.9243 57.0954 84.9097 58.2917C84.9097 58.7325 84.8145 58.9118 84.3152 58.7708C83.5596 58.5591 82.927 58.2417 82.4892 57.5392C82.2081 57.0895 81.864 56.6266 81.4379 56.3297C80.0219 55.3436 79.8506 53.8197 79.6485 52.3251C79.5563 51.6623 79.3395 50.9892 79.4596 50.5483Z" fill="#051C40"/>
<path d="M93.5475 48.6392C93.5856 46.7728 94.0307 44.9652 94.4905 43.1841C96.9256 33.7124 100.424 24.62 104.336 15.6804C106.367 11.0393 108.59 6.49091 111.582 2.37748C113.065 0.336196 112.545 0.34942 115.045 1.4384C116.592 2.10552 118.048 2.9699 119.376 4.01021C120.108 4.58483 120.108 4.73179 119.546 5.41663C113.315 12.8984 108.801 21.356 105.372 30.4352C103.322 35.8537 101.518 41.3485 100.211 46.9962C99.3593 50.682 98.693 54.4001 98.8175 58.2108C98.8365 58.7736 98.6403 58.8883 98.1337 58.7487C97.4264 58.5547 96.8158 58.2534 96.4321 57.5877C96.1151 57.0327 95.6868 56.5498 95.1743 56.1695C94.3821 55.5949 94.0249 54.8013 93.8228 53.899C93.6588 53.1642 93.4758 52.4294 93.5416 51.6593C93.5436 50.6521 93.5456 49.6454 93.5475 48.6392Z" fill="#051C40"/>
<path d="M77.8884 28.2514C77.5121 34.5707 74.6465 39.1927 69.4468 42.4258C66.9711 43.9427 64.3638 45.2319 61.6568 46.2776C61.0081 46.5333 60.7504 46.9096 60.7446 47.5856C60.7314 48.9082 60.8148 50.2309 61.2644 51.4815C61.8252 53.0555 62.941 53.6139 64.5898 53.3582C67.9811 52.8321 70.4586 50.7688 72.8484 48.5438C73.5454 47.8942 74.1852 47.1859 74.8574 46.5098C75.1502 46.2159 75.3933 45.7589 75.9131 46.2776C76.367 46.7288 76.5837 47.0609 76.083 47.6826C74.4049 49.7679 72.5687 51.6873 70.4308 53.2935C69.0911 54.2723 67.6705 55.1341 66.1844 55.8698C64.4551 56.7515 62.7682 56.7515 60.9847 56.1108C57.4821 54.8587 55.2842 52.4661 54.5038 48.8054C54.0513 46.6818 54.3163 44.5582 54.8083 42.4978C56.419 35.7832 59.9333 30.2898 65.5313 26.2131C67.3221 24.9066 69.3384 24.0395 71.57 23.7838C72.8103 23.6369 73.9275 24.0381 74.976 24.6568C75.7923 25.15 76.5322 25.7605 77.1724 26.4688C77.6732 27.0096 78.2457 27.5446 77.8884 28.2514ZM73.4751 30.2354C73.5131 29.818 73.4004 29.6623 72.9347 29.7725C71.3391 30.1504 69.8601 30.9148 68.6268 31.9989C65.1521 35.0366 62.9381 38.9061 61.629 43.3149C61.5777 43.4869 61.3771 43.6823 61.5792 43.8484C61.7256 43.9718 61.9057 43.8249 62.0492 43.747C65.7495 41.7204 69.0866 39.2603 71.4705 35.6862C72.5478 34.0483 73.2338 32.183 73.4751 30.2354Z" fill="#051C40"/>
<path d="M46.4048 70.7671H44.3372C43.097 70.4952 41.8377 70.7054 40.5901 70.6201C37.808 70.676 35.0537 70.4144 32.2891 70.2204C30.1571 70.0734 28.0324 69.8647 25.9165 69.587C21.3494 68.9844 16.8072 68.2261 12.3455 67.0401C11.2414 66.7462 10.1491 66.4317 9.04355 66.1187C8.86784 66.0687 8.58961 66.057 8.63354 65.7969C8.67747 65.5367 8.95276 65.6572 9.12847 65.6396C9.32358 65.6293 9.51909 65.6293 9.71419 65.6396H82.3106C82.3648 66.0423 82.0763 66.0482 81.8581 66.1158C78.9797 67.0066 76.052 67.7284 73.09 68.2776C70.4718 68.7625 67.8449 69.2225 65.2063 69.5664C63.044 69.8466 60.872 70.0636 58.6902 70.2175C56.0545 70.41 53.407 70.6348 50.7552 70.6422C50.5605 70.6422 50.3657 70.6333 50.1695 70.6289C48.9146 70.7024 47.6553 70.5026 46.4048 70.7671Z" fill="#051C40"/>
<path d="M67.3353 14.9088C67.3353 17.8744 65.4815 20.3463 62.8355 20.9106C61.8003 21.1326 60.7972 20.9797 59.9509 20.264C59.5013 19.8834 59.3564 19.4675 59.5994 18.8458C60.3653 16.8898 61.0637 14.9073 61.7739 12.9307C61.8501 12.7205 62.0668 12.4369 61.7842 12.2752C61.5382 12.1283 61.3449 12.4134 61.1794 12.5691C60.7677 12.9543 60.4427 13.4233 60.2262 13.9447C60.1486 14.1152 60.1368 14.3562 59.8821 14.3635C59.6273 14.3709 59.5116 14.1578 59.4003 13.9697C59.207 13.6434 59.2671 13.3201 59.4106 12.9895C59.9348 11.7814 60.9451 11.2627 62.1546 11.0628C64.2588 10.7174 66.6353 11.5478 67.2518 13.905C67.347 14.271 67.3016 14.6295 67.3353 14.9088ZM62.8531 11.8432C63.7185 12.5897 63.7112 12.578 63.146 13.7345C62.2967 15.4687 61.4942 17.2249 60.91 19.0692C60.6698 19.8275 60.7738 19.926 61.544 19.951C62.2538 19.963 62.9524 19.773 63.5589 19.4028C65.4903 18.2756 66.6266 15.8537 66.2898 13.6405C66.0628 12.1136 64.0802 11.0819 62.8531 11.8432Z" fill="#051C40"/>
<path d="M75.7696 15.6598C75.9614 15.3291 76.2206 15.1072 76.6042 15.3174C77.0318 15.5525 76.8238 15.8949 76.6964 16.2124C76.3816 17.006 76.0727 17.7995 75.9306 18.6534C75.8618 18.9348 75.8618 19.2288 75.9306 19.5102C76.0258 19.8232 76.0976 20.1759 75.6173 20.2362C75.178 20.2905 74.8514 20.1348 74.7914 19.6366C74.7533 19.3294 74.8573 19.009 74.6904 18.6255C74.3053 19.1046 73.9583 19.5601 73.5087 19.904C72.737 20.4919 72.0268 20.1979 71.8731 19.2442C71.63 17.7334 72.8688 15.335 74.2423 14.659C74.8632 14.3518 75.3479 14.6458 75.607 15.4805C74.1837 16.1066 73.3945 17.244 72.986 18.7136C72.9142 18.9693 72.7619 19.3015 73.0196 19.4367C73.2773 19.5719 73.5072 19.2809 73.6786 19.0825C74.5688 18.0538 75.2087 16.8781 75.7696 15.6598Z" fill="#051C40"/>
<path d="M71.2464 18.5857C71.0566 19.0309 70.7627 19.4237 70.3895 19.7307C70.0164 20.0377 69.5749 20.2498 69.1027 20.3492C68.1348 20.5667 67.1991 19.441 67.3456 18.2389C67.4193 17.4822 67.6664 16.7529 68.0675 16.1079C68.4686 15.4629 69.0128 14.9197 69.6577 14.5208C69.8425 14.4017 70.0445 14.3119 70.2566 14.2548C71.0912 14.0329 71.7633 14.7118 71.6198 15.5671C71.3724 17.0367 70.3122 17.7245 69.11 18.283C68.763 18.4446 68.4306 18.5769 68.5243 19.0677C68.6576 19.7085 69.0134 19.8907 69.6401 19.6556C70.2668 19.4205 70.6607 18.8738 71.2464 18.5857ZM69.0807 17.7804C69.5361 17.7348 70.8525 16.2123 70.8086 15.7361C70.7808 15.429 70.5699 15.4555 70.3869 15.551C69.5757 15.9683 69.1715 16.7267 68.8362 17.5173C68.7747 17.6643 68.8216 17.8171 69.0807 17.7804Z" fill="#051C40"/>
<path d="M79.3747 16.4211C80.0629 15.9802 80.4582 15.4658 80.8389 14.9514C81.0366 14.6899 81.2328 14.393 81.6048 14.5752C81.9767 14.7575 81.779 15.0646 81.7248 15.3482C81.6342 15.7293 81.6474 16.1277 81.7629 16.5019C81.8025 16.6206 81.7978 16.7497 81.7496 16.8652C81.7013 16.9806 81.6129 17.0745 81.5008 17.1294C81.4478 17.1619 81.3886 17.1827 81.3271 17.1905C81.2655 17.1983 81.203 17.1929 81.1436 17.1748C81.0843 17.1566 81.0294 17.126 80.9827 17.085C80.936 17.044 80.8985 16.9935 80.8726 16.9369C80.4333 16.2021 80.038 16.4622 79.5709 16.9237C78.8138 17.6717 78.3863 18.5726 78.1373 19.5895C78.0729 19.8496 78.1037 20.342 77.6131 20.1979C77.2017 20.076 76.9044 19.8114 77.0508 19.2633C77.4434 17.7279 77.9395 16.221 78.5356 14.753C78.767 14.2005 79.1082 14.0711 79.625 14.3709C79.9648 14.5679 80.0512 14.8118 79.8271 15.1513C79.5619 15.5243 79.4052 15.9639 79.3747 16.4211Z" fill="#051C40"/>
<path d="M40.5901 70.629C41.8377 70.7069 43.097 70.4968 44.3372 70.776C43.0863 70.8396 41.8323 70.7904 40.5901 70.629Z" fill="#051C40"/>
<path d="M46.4048 70.7671C47.6524 70.4996 48.9146 70.7025 50.1695 70.6319C48.9217 70.7967 47.6611 70.8419 46.4048 70.7671Z" fill="#051C40"/>
<path d="M93.5475 48.6392C93.5475 49.6464 93.5475 50.6532 93.5475 51.6593C93.2993 50.6681 93.2993 49.6305 93.5475 48.6392Z" fill="#051C40"/>
<path d="M44.1835 46.232C44.2157 45.9645 44.4251 45.8396 44.6081 45.6926C44.5396 45.9198 44.3879 46.1125 44.1835 46.232Z" fill="#051C40"/>
<path d="M43.3708 46.9139C43.5172 46.7566 43.6299 46.5362 43.892 46.5244C43.7588 46.7096 43.6197 46.886 43.3708 46.9139Z" fill="#051C40"/>
<path d="M44.0399 46.3819C44.0312 46.2747 44.0824 46.2262 44.1864 46.235L44.0399 46.3819Z" fill="#051C40"/>
<path d="M43.8936 46.5289C43.8936 46.4216 43.936 46.3731 44.0399 46.3819L43.8936 46.5289Z" fill="#051C40"/>
<path d="M123.542 43.4427L123.625 43.353L123.643 43.5235L123.542 43.4427Z" fill="#051C40"/>
</g>
<defs>
<clipPath id="clip0_1638_6860">
<rect width="141.606" height="70.8029" fill="white" transform="translate(0.132812)"/>
</clipPath>
</defs>
</svg>
