<svg width="142" height="71" viewBox="0 0 142 71" fill="none" xmlns="http://www.w3.org/2000/svg">
<g clip-path="url(#clip0_1638_6846)">
<path d="M127.404 18.5798V51.6181H87.295H2.15577V18.5798H127.404ZM129.56 16.4241H0V53.7727H87.2938H129.559V16.4241H129.56Z" fill="#051C40"/>
<path d="M86.2151 50.5523H126.451V19.6467H3.10938V50.5523H86.2151Z" fill="#051C40"/>
<path d="M95.6456 36.4001L88.2238 38.4762L94.7696 42.55C94.5608 43.3983 94.3172 44.2315 94.0368 45.0428L86.3277 44.9355L91.4506 50.7046C91.012 51.4593 90.5458 52.1841 90.0426 52.8892L82.6786 50.6111L85.9769 57.5804C85.3514 58.1771 84.6913 58.7449 84.015 59.2758L77.5846 55.03L78.7918 62.6456C78.0232 63.0334 77.2326 63.4003 76.4283 63.7235L71.4566 57.8251L70.4503 65.4765C69.6101 65.6346 68.755 65.7569 67.8848 65.8435L64.7815 58.7876L61.6783 65.8435C60.8093 65.7569 59.9541 65.6346 59.1128 65.4765L58.1065 57.8251L53.1348 63.7235C52.3305 63.4003 51.5399 63.0334 50.7713 62.6456L51.9785 55.03L45.5481 59.2758C44.866 58.7368 44.2117 58.169 43.5793 57.5735L46.8776 50.6111L39.5205 52.8811C39.0173 52.1772 38.5511 51.4513 38.1125 50.7046L43.2354 44.9355L35.5263 45.0428C35.2458 44.2303 35.0023 43.3971 34.7934 42.55L41.3392 38.4762L33.9175 36.4001C33.8956 35.9685 33.8887 35.538 33.8887 35.0995C33.8887 34.6609 33.8956 34.2305 33.9175 33.7989L41.3392 31.7227L34.7934 27.6489C35.0023 26.8007 35.2458 25.9674 35.5263 25.1561L43.2354 25.2635L38.1125 19.4944C38.5511 18.7396 39.0173 18.0149 39.5205 17.3097L46.8845 19.5878L43.5862 12.6185C44.2117 12.0219 44.8718 11.4541 45.5481 10.9232L51.9785 15.169L50.7713 7.55335C51.5399 7.16559 52.3305 6.7986 53.1348 6.47547L58.1065 12.3738L59.1128 4.72246C59.953 4.56435 60.8081 4.44202 61.6783 4.35547L64.7815 11.4114L67.8848 4.35547C68.7538 4.44202 69.609 4.56435 70.4503 4.72246L71.4566 12.3738L76.4283 6.47547C77.2326 6.7986 78.0232 7.16559 78.7918 7.55335L77.5846 15.169L84.015 10.9232C84.6971 11.4621 85.3514 12.0299 85.9838 12.6254L82.6855 19.5878L90.0426 17.3178C90.5458 18.0218 91.012 18.7477 91.4506 19.4944L86.3277 25.2635L94.0368 25.1561C94.3172 25.9674 94.5608 26.8018 94.7696 27.6489L88.2238 31.7227L95.6456 33.7989C95.6675 34.2305 95.6744 34.6609 95.6744 35.0995C95.6744 35.538 95.6663 35.9685 95.6456 36.4001Z" fill="white"/>
<path d="M95.644 33.799C95.6221 33.2889 95.5932 32.7858 95.5436 32.2826L91.7502 31.2197L95.0981 29.1366C94.9977 28.6335 94.8893 28.1384 94.7681 27.6491C94.5592 26.8008 94.3157 25.9676 94.0352 25.1563C93.8771 24.6751 93.6971 24.2007 93.5182 23.7264L89.5667 23.7841L92.1888 20.824C91.9522 20.3716 91.7075 19.933 91.449 19.4945C91.0105 18.7478 90.5442 18.0219 90.0411 17.318C89.7537 16.9013 89.4525 16.4917 89.1363 16.0889L85.3787 17.2533L87.0601 13.6965C86.7081 13.3307 86.3492 12.9776 85.9823 12.6256C85.3498 12.0289 84.6966 11.4611 84.0134 10.9233C83.6187 10.6002 83.216 10.2978 82.7994 10.0036L79.5161 12.1732L80.1335 8.2794C79.695 8.02782 79.2426 7.79124 78.7902 7.5535C78.0216 7.16574 77.2311 6.79875 76.4267 6.47562C75.9593 6.28174 75.485 6.1017 75.0037 5.93667L72.4533 8.95452L71.9432 5.03882C71.455 4.92341 70.9518 4.81609 70.4487 4.72261C69.6085 4.5645 68.7534 4.44217 67.8832 4.35562C67.38 4.30484 66.87 4.26906 66.3599 4.24829L64.7788 7.84086L63.1978 4.24829C62.6877 4.27022 62.1776 4.30599 61.6744 4.35562C60.8054 4.44217 59.9502 4.5645 59.1089 4.72261C58.6058 4.81609 58.1026 4.92341 57.6144 5.03882L57.1043 8.95452L54.5539 5.93667C54.0726 6.1017 53.5983 6.28174 53.1309 6.47562C52.3266 6.79875 51.536 7.16574 50.7674 7.5535C50.315 7.79008 49.8626 8.02782 49.4241 8.2794L50.0415 12.1732L46.7582 10.0036C46.3416 10.2978 45.9389 10.6002 45.5442 10.9233C44.8691 11.4554 44.2078 12.0232 43.5823 12.6186C43.2153 12.9706 42.8495 13.3295 42.4975 13.6965L44.1789 17.2533L40.4213 16.0889C40.1051 16.4836 39.8039 16.8933 39.5166 17.3099C39.0134 18.0139 38.5471 18.7398 38.1086 19.4945C37.8501 19.933 37.6054 20.3716 37.3689 20.824L39.9909 23.7841L36.0394 23.7264C35.8594 24.2007 35.6805 24.6751 35.5224 25.1563C35.2419 25.9676 34.9984 26.802 34.7895 27.6491C34.6672 28.1372 34.5599 28.6335 34.4595 29.1366L37.8074 31.2197L34.014 32.2826C33.9632 32.7858 33.9355 33.2889 33.9136 33.799C33.8917 34.2306 33.8848 34.6611 33.8848 35.0996C33.8848 35.5382 33.8917 35.9686 33.9136 36.4002C33.9355 36.9103 33.9644 37.4135 34.014 37.9167L37.8074 38.9796L34.4595 41.0626C34.5599 41.5658 34.6684 42.0609 34.7895 42.5502C34.9984 43.3984 35.2419 44.2317 35.5224 45.043C35.6805 45.5242 35.8605 45.9985 36.0394 46.4728L39.9909 46.4151L37.3689 49.3753C37.6054 49.8277 37.8501 50.2662 38.1086 50.7048C38.5471 51.4514 39.0134 52.1773 39.5166 52.8813C39.8039 53.2979 40.1051 53.7076 40.4213 54.1104L44.1789 52.9459L42.4975 56.5027C42.8495 56.8697 43.2084 57.2217 43.5754 57.5737C44.2078 58.1703 44.861 58.7381 45.5442 59.2759C45.9389 59.599 46.3416 59.9014 46.7582 60.1957L50.0415 58.0261L49.4241 61.9199C49.8626 62.1714 50.315 62.408 50.7674 62.6458C51.536 63.0335 52.3266 63.4005 53.1309 63.7236C53.5983 63.9175 54.0726 64.0976 54.5539 64.2626L57.1043 61.2447L57.6144 65.1604C58.1026 65.2759 58.6058 65.3832 59.1089 65.4767C59.9491 65.6348 60.8042 65.7571 61.6744 65.8436C62.1776 65.8944 62.6877 65.9302 63.1978 65.951L64.7788 62.3584L66.3599 65.951C66.87 65.929 67.38 65.8933 67.8832 65.8436C68.7522 65.7571 69.6074 65.6348 70.4487 65.4767C70.9518 65.3832 71.455 65.2759 71.9432 65.1604L72.4533 61.2447L75.0037 64.2626C75.485 64.0976 75.9593 63.9175 76.4267 63.7236C77.2311 63.4005 78.0216 63.0335 78.7902 62.6458C79.2426 62.4092 79.695 62.1714 80.1335 61.9199L79.5161 58.0261L82.7994 60.1957C83.216 59.9014 83.6187 59.599 84.0134 59.2759C84.6886 58.7439 85.3498 58.1761 85.9753 57.5806C86.3423 57.2286 86.7081 56.8697 87.0601 56.5027L85.3787 52.9459L89.1363 54.1104C89.4525 53.7157 89.7537 53.306 90.0411 52.8894C90.5442 52.1854 91.0105 51.4595 91.449 50.7048C91.7075 50.2662 91.9522 49.8277 92.1888 49.3753L89.5667 46.4151L93.5182 46.4728C93.6983 45.9985 93.8771 45.5242 94.0352 45.043C94.3157 44.2305 94.5592 43.3973 94.7681 42.5502C94.8904 42.062 94.9977 41.5658 95.0981 41.0626L91.7502 38.9796L95.5436 37.9167C95.5944 37.4135 95.6221 36.9103 95.644 36.4002C95.6659 35.9686 95.6728 35.5382 95.6728 35.0996C95.6728 34.6611 95.6648 34.2306 95.644 33.799ZM79.9812 48.2697L84.5431 57.9049L75.6488 52.0273L77.3153 62.5534L70.4464 54.4058L69.0673 64.9746L64.7777 55.2183L60.488 64.9746L59.1089 54.4058L52.2331 62.5534L53.9076 52.0273L45.0133 57.9049L49.5753 48.2697L39.3942 51.4168L46.4709 43.4561L35.8155 43.5992L44.861 37.9663L34.6014 35.0996L44.861 32.233L35.8155 26.6L46.4709 26.7443L39.3942 18.7767L49.5753 21.9307L45.0133 12.2955L53.9076 18.1731L52.2412 7.64698L59.1101 15.7946L60.4892 5.22578L64.7788 14.9822L69.0684 5.22578L70.4475 15.7946L77.3234 7.64698L75.6488 18.1731L84.5431 12.2955L79.9812 21.9307L90.1622 18.7836L83.0856 26.7443L93.741 26.6L84.6955 32.233L94.955 35.0996L84.6955 37.9663L93.741 43.5992L83.0856 43.4561L90.1622 51.4237L79.9812 48.2697Z" fill="#051C40"/>
<mask id="path-5-inside-1_1638_6846" fill="white">
<path d="M8.5293 43.7259V25.9408C8.5293 25.1978 8.76148 24.6199 9.22584 24.2071C9.70053 23.7841 10.3042 23.5725 11.0369 23.5725H17.12C18.2139 23.5725 19.2148 23.8047 20.1229 24.2691C21.031 24.7334 21.7482 25.3939 22.2745 26.2504C22.8111 27.0965 23.0794 28.0614 23.0794 29.1449C23.0794 31.3429 22.0991 32.8959 20.1384 33.804V33.8659C20.7988 33.9588 21.4232 34.1652 22.0113 34.4851C22.5995 34.7947 23.1155 35.1919 23.5592 35.677C24.0133 36.162 24.359 36.7037 24.5963 37.3022C24.8336 37.9007 24.9523 38.556 24.9523 39.268C24.9523 41.4557 24.2816 43.1481 22.9401 44.3451C21.6089 45.5421 19.8288 46.1406 17.5999 46.1406H11.0678C10.3248 46.1406 9.71601 45.9188 9.24132 45.475C8.76664 45.0313 8.5293 44.4483 8.5293 43.7259ZM13.2813 27.7518V32.5038H15.7579C16.5422 32.5038 17.1665 32.2871 17.6308 31.8537C18.0952 31.41 18.3274 30.796 18.3274 30.0117C18.3274 29.2894 18.0849 28.7321 17.5999 28.34C17.1252 27.9479 16.5112 27.7518 15.7579 27.7518H13.2813ZM13.2813 36.6986V41.9613H17.0272C17.9146 41.9613 18.6318 41.7188 19.1787 41.2338C19.736 40.7385 20.0146 40.0575 20.0146 39.1906C20.0146 38.427 19.7256 37.8233 19.1478 37.3796C18.5802 36.9256 17.7444 36.6986 16.6402 36.6986H13.2813Z"/>
<path d="M26.7324 43.7569V26.3277C26.7324 25.5022 26.9439 24.8366 27.367 24.331C27.7901 23.8253 28.4041 23.5725 29.209 23.5725H37.0722C37.7946 23.5725 38.3467 23.7892 38.7285 24.2226C39.1206 24.6457 39.3167 25.1565 39.3167 25.755C39.3167 26.1472 39.229 26.5083 39.0535 26.8385C38.8781 27.1584 38.6201 27.4216 38.2796 27.628C37.9494 27.8344 37.5469 27.9375 37.0722 27.9375H31.4844V32.5657H36.6853C37.4282 32.5657 38.001 32.7773 38.4034 33.2003C38.8059 33.6234 39.0071 34.1445 39.0071 34.7637C39.0071 35.3416 38.8007 35.8524 38.3879 36.2961C37.9752 36.7295 37.4076 36.9462 36.6853 36.9462H31.4844V41.7601H37.3509C38.0835 41.7601 38.6408 41.9768 39.0226 42.4102C39.4147 42.8333 39.6108 43.3493 39.6108 43.9581C39.6108 44.2987 39.5231 44.6443 39.3476 44.9952C39.1722 45.346 38.9142 45.6247 38.5737 45.8311C38.2331 46.0374 37.8255 46.1406 37.3509 46.1406H29.178C28.4763 46.1406 27.8933 45.9239 27.4289 45.4905C26.9646 45.0468 26.7324 44.4689 26.7324 43.7569Z"/>
<path d="M41.4063 43.5402V25.8479C41.4063 25.0843 41.6282 24.4858 42.0719 24.0524C42.5259 23.6086 43.0987 23.3868 43.79 23.3868C44.4917 23.3868 45.0593 23.6035 45.4927 24.0369C45.9364 24.46 46.1583 25.0636 46.1583 25.8479V41.7601H51.8081C52.5717 41.7601 53.1392 41.9923 53.5107 42.4567C53.8926 42.9107 54.0835 43.4422 54.0835 44.051C54.0525 44.6082 53.8306 45.0984 53.4179 45.5215C53.0051 45.9342 52.4685 46.1406 51.8081 46.1406H43.8829C43.1193 46.1406 42.5156 45.9084 42.0719 45.4441C41.6282 44.9694 41.4063 44.3348 41.4063 43.5402Z"/>
<path d="M64.9186 42.1471C65.8886 42.1471 66.7503 41.9562 67.5036 41.5744C68.2569 41.1926 68.8864 40.6611 69.392 39.9801C69.8976 39.2887 70.2691 38.5096 70.5065 37.6428C70.7541 36.7656 70.878 35.8369 70.878 34.8566C70.878 33.5357 70.651 32.3232 70.1969 31.2191C69.7429 30.1149 69.0618 29.2326 68.1537 28.5722C67.2559 27.9014 66.1776 27.5661 64.9186 27.5661C63.6597 27.5661 62.5762 27.9014 61.6681 28.5722C60.7703 29.2326 60.0944 30.1149 59.6404 31.2191C59.1863 32.3232 58.9593 33.5357 58.9593 34.8566C58.9593 36.9307 59.4701 38.6644 60.4917 40.0575C61.5236 41.4505 62.9993 42.1471 64.9186 42.1471ZM64.9186 46.5276C62.8135 46.5276 60.9303 46.0168 59.2689 44.9952C57.6178 43.9633 56.3279 42.5547 55.3992 40.7695C54.4807 38.9843 54.0215 37.0133 54.0215 34.8566C54.0215 33.2158 54.2847 31.6834 54.811 30.2594C55.3372 28.8353 56.0854 27.5918 57.0554 26.529C58.0357 25.4661 59.1915 24.6457 60.5226 24.0678C61.8538 23.4796 63.3192 23.1855 64.9186 23.1855C66.4871 23.1855 67.9422 23.49 69.2836 24.0988C70.6355 24.6973 71.7964 25.528 72.7664 26.5909C73.7364 27.6538 74.4897 28.8972 75.0263 30.3213C75.5629 31.7453 75.8312 33.2571 75.8312 34.8566C75.8312 36.4767 75.5732 37.9988 75.0573 39.4228C74.5413 40.8366 73.788 42.08 72.7973 43.1532C71.817 44.2264 70.6561 45.0571 69.3146 45.6453C67.9731 46.2335 66.5078 46.5276 64.9186 46.5276Z"/>
<path d="M77.054 42.4876L83.3384 34.0672L78.1995 27.0862C77.8589 26.6631 77.6887 26.1988 77.6887 25.6931C77.6887 25.012 77.9157 24.46 78.3697 24.0369C78.8341 23.6035 79.412 23.3868 80.1033 23.3868C80.5058 23.3868 80.8979 23.5054 81.2797 23.7428C81.6616 23.9698 81.9556 24.2381 82.162 24.5477L86.0937 30.1355L90.0253 24.5477C90.2317 24.2381 90.5257 23.9698 90.9076 23.7428C91.2894 23.5054 91.6815 23.3868 92.084 23.3868C92.507 23.3868 92.9095 23.4848 93.2913 23.6809C93.6731 23.8769 93.9672 24.1504 94.1736 24.5012C94.38 24.8418 94.4832 25.2391 94.4832 25.6931C94.4832 26.1884 94.3181 26.6528 93.9878 27.0862L88.8489 34.0672L95.1178 42.4876C95.479 42.9726 95.6596 43.5144 95.6596 44.1129C95.6596 44.7837 95.4377 45.3203 94.994 45.7227C94.5502 46.1252 93.9724 46.3264 93.2603 46.3264C92.4348 46.3264 91.7795 45.9807 91.2945 45.2893L86.0937 38.0607L80.8928 45.2893C80.3974 45.9807 79.7422 46.3264 78.927 46.3264C78.2253 46.3264 77.6474 46.12 77.1933 45.7072C76.7393 45.2945 76.5123 44.763 76.5123 44.1129C76.5123 43.5453 76.6928 43.0036 77.054 42.4876Z"/>
<path d="M96.4645 42.4876L102.749 34.0672L97.6099 27.0862C97.2694 26.6631 97.0991 26.1988 97.0991 25.6931C97.0991 25.012 97.3261 24.46 97.7802 24.0369C98.2445 23.6035 98.8224 23.3868 99.5138 23.3868C99.9162 23.3868 100.308 23.5054 100.69 23.7428C101.072 23.9698 101.366 24.2381 101.572 24.5477L105.504 30.1355L109.436 24.5477C109.642 24.2381 109.936 23.9698 110.318 23.7428C110.7 23.5054 111.092 23.3868 111.494 23.3868C111.917 23.3868 112.32 23.4848 112.702 23.6809C113.084 23.8769 113.378 24.1504 113.584 24.5012C113.79 24.8418 113.894 25.2391 113.894 25.6931C113.894 26.1884 113.729 26.6528 113.398 27.0862L108.259 34.0672L114.528 42.4876C114.889 42.9726 115.07 43.5144 115.07 44.1129C115.07 44.7837 114.848 45.3203 114.404 45.7227C113.961 46.1252 113.383 46.3264 112.671 46.3264C111.845 46.3264 111.19 45.9807 110.705 45.2893L105.504 38.0607L100.303 45.2893C99.8079 45.9807 99.1526 46.3264 98.3374 46.3264C97.6357 46.3264 97.0578 46.12 96.6038 45.7072C96.1497 45.2945 95.9227 44.763 95.9227 44.1129C95.9227 43.5453 96.1033 43.0036 96.4645 42.4876Z"/>
<path d="M116.633 43.8652V25.8479C116.633 25.0843 116.855 24.4858 117.299 24.0524C117.753 23.6086 118.326 23.3868 119.017 23.3868C119.719 23.3868 120.286 23.6035 120.72 24.0369C121.163 24.46 121.385 25.0636 121.385 25.8479V43.8652C121.385 44.6495 121.163 45.2583 120.72 45.6917C120.286 46.1148 119.719 46.3264 119.017 46.3264C118.326 46.3264 117.753 46.1097 117.299 45.6763C116.855 45.2325 116.633 44.6289 116.633 43.8652Z"/>
</mask>
<path d="M8.5293 43.7259V25.9408C8.5293 25.1978 8.76148 24.6199 9.22584 24.2071C9.70053 23.7841 10.3042 23.5725 11.0369 23.5725H17.12C18.2139 23.5725 19.2148 23.8047 20.1229 24.2691C21.031 24.7334 21.7482 25.3939 22.2745 26.2504C22.8111 27.0965 23.0794 28.0614 23.0794 29.1449C23.0794 31.3429 22.0991 32.8959 20.1384 33.804V33.8659C20.7988 33.9588 21.4232 34.1652 22.0113 34.4851C22.5995 34.7947 23.1155 35.1919 23.5592 35.677C24.0133 36.162 24.359 36.7037 24.5963 37.3022C24.8336 37.9007 24.9523 38.556 24.9523 39.268C24.9523 41.4557 24.2816 43.1481 22.9401 44.3451C21.6089 45.5421 19.8288 46.1406 17.5999 46.1406H11.0678C10.3248 46.1406 9.71601 45.9188 9.24132 45.475C8.76664 45.0313 8.5293 44.4483 8.5293 43.7259ZM13.2813 27.7518V32.5038H15.7579C16.5422 32.5038 17.1665 32.2871 17.6308 31.8537C18.0952 31.41 18.3274 30.796 18.3274 30.0117C18.3274 29.2894 18.0849 28.7321 17.5999 28.34C17.1252 27.9479 16.5112 27.7518 15.7579 27.7518H13.2813ZM13.2813 36.6986V41.9613H17.0272C17.9146 41.9613 18.6318 41.7188 19.1787 41.2338C19.736 40.7385 20.0146 40.0575 20.0146 39.1906C20.0146 38.427 19.7256 37.8233 19.1478 37.3796C18.5802 36.9256 17.7444 36.6986 16.6402 36.6986H13.2813Z" fill="white"/>
<path d="M26.7324 43.7569V26.3277C26.7324 25.5022 26.9439 24.8366 27.367 24.331C27.7901 23.8253 28.4041 23.5725 29.209 23.5725H37.0722C37.7946 23.5725 38.3467 23.7892 38.7285 24.2226C39.1206 24.6457 39.3167 25.1565 39.3167 25.755C39.3167 26.1472 39.229 26.5083 39.0535 26.8385C38.8781 27.1584 38.6201 27.4216 38.2796 27.628C37.9494 27.8344 37.5469 27.9375 37.0722 27.9375H31.4844V32.5657H36.6853C37.4282 32.5657 38.001 32.7773 38.4034 33.2003C38.8059 33.6234 39.0071 34.1445 39.0071 34.7637C39.0071 35.3416 38.8007 35.8524 38.3879 36.2961C37.9752 36.7295 37.4076 36.9462 36.6853 36.9462H31.4844V41.7601H37.3509C38.0835 41.7601 38.6408 41.9768 39.0226 42.4102C39.4147 42.8333 39.6108 43.3493 39.6108 43.9581C39.6108 44.2987 39.5231 44.6443 39.3476 44.9952C39.1722 45.346 38.9142 45.6247 38.5737 45.8311C38.2331 46.0374 37.8255 46.1406 37.3509 46.1406H29.178C28.4763 46.1406 27.8933 45.9239 27.4289 45.4905C26.9646 45.0468 26.7324 44.4689 26.7324 43.7569Z" fill="white"/>
<path d="M41.4063 43.5402V25.8479C41.4063 25.0843 41.6282 24.4858 42.0719 24.0524C42.5259 23.6086 43.0987 23.3868 43.79 23.3868C44.4917 23.3868 45.0593 23.6035 45.4927 24.0369C45.9364 24.46 46.1583 25.0636 46.1583 25.8479V41.7601H51.8081C52.5717 41.7601 53.1392 41.9923 53.5107 42.4567C53.8926 42.9107 54.0835 43.4422 54.0835 44.051C54.0525 44.6082 53.8306 45.0984 53.4179 45.5215C53.0051 45.9342 52.4685 46.1406 51.8081 46.1406H43.8829C43.1193 46.1406 42.5156 45.9084 42.0719 45.4441C41.6282 44.9694 41.4063 44.3348 41.4063 43.5402Z" fill="white"/>
<path d="M64.9186 42.1471C65.8886 42.1471 66.7503 41.9562 67.5036 41.5744C68.2569 41.1926 68.8864 40.6611 69.392 39.9801C69.8976 39.2887 70.2691 38.5096 70.5065 37.6428C70.7541 36.7656 70.878 35.8369 70.878 34.8566C70.878 33.5357 70.651 32.3232 70.1969 31.2191C69.7429 30.1149 69.0618 29.2326 68.1537 28.5722C67.2559 27.9014 66.1776 27.5661 64.9186 27.5661C63.6597 27.5661 62.5762 27.9014 61.6681 28.5722C60.7703 29.2326 60.0944 30.1149 59.6404 31.2191C59.1863 32.3232 58.9593 33.5357 58.9593 34.8566C58.9593 36.9307 59.4701 38.6644 60.4917 40.0575C61.5236 41.4505 62.9993 42.1471 64.9186 42.1471ZM64.9186 46.5276C62.8135 46.5276 60.9303 46.0168 59.2689 44.9952C57.6178 43.9633 56.3279 42.5547 55.3992 40.7695C54.4807 38.9843 54.0215 37.0133 54.0215 34.8566C54.0215 33.2158 54.2847 31.6834 54.811 30.2594C55.3372 28.8353 56.0854 27.5918 57.0554 26.529C58.0357 25.4661 59.1915 24.6457 60.5226 24.0678C61.8538 23.4796 63.3192 23.1855 64.9186 23.1855C66.4871 23.1855 67.9422 23.49 69.2836 24.0988C70.6355 24.6973 71.7964 25.528 72.7664 26.5909C73.7364 27.6538 74.4897 28.8972 75.0263 30.3213C75.5629 31.7453 75.8312 33.2571 75.8312 34.8566C75.8312 36.4767 75.5732 37.9988 75.0573 39.4228C74.5413 40.8366 73.788 42.08 72.7973 43.1532C71.817 44.2264 70.6561 45.0571 69.3146 45.6453C67.9731 46.2335 66.5078 46.5276 64.9186 46.5276Z" fill="white"/>
<path d="M77.054 42.4876L83.3384 34.0672L78.1995 27.0862C77.8589 26.6631 77.6887 26.1988 77.6887 25.6931C77.6887 25.012 77.9157 24.46 78.3697 24.0369C78.8341 23.6035 79.412 23.3868 80.1033 23.3868C80.5058 23.3868 80.8979 23.5054 81.2797 23.7428C81.6616 23.9698 81.9556 24.2381 82.162 24.5477L86.0937 30.1355L90.0253 24.5477C90.2317 24.2381 90.5257 23.9698 90.9076 23.7428C91.2894 23.5054 91.6815 23.3868 92.084 23.3868C92.507 23.3868 92.9095 23.4848 93.2913 23.6809C93.6731 23.8769 93.9672 24.1504 94.1736 24.5012C94.38 24.8418 94.4832 25.2391 94.4832 25.6931C94.4832 26.1884 94.3181 26.6528 93.9878 27.0862L88.8489 34.0672L95.1178 42.4876C95.479 42.9726 95.6596 43.5144 95.6596 44.1129C95.6596 44.7837 95.4377 45.3203 94.994 45.7227C94.5502 46.1252 93.9724 46.3264 93.2603 46.3264C92.4348 46.3264 91.7795 45.9807 91.2945 45.2893L86.0937 38.0607L80.8928 45.2893C80.3974 45.9807 79.7422 46.3264 78.927 46.3264C78.2253 46.3264 77.6474 46.12 77.1933 45.7072C76.7393 45.2945 76.5123 44.763 76.5123 44.1129C76.5123 43.5453 76.6928 43.0036 77.054 42.4876Z" fill="white"/>
<path d="M96.4645 42.4876L102.749 34.0672L97.6099 27.0862C97.2694 26.6631 97.0991 26.1988 97.0991 25.6931C97.0991 25.012 97.3261 24.46 97.7802 24.0369C98.2445 23.6035 98.8224 23.3868 99.5138 23.3868C99.9162 23.3868 100.308 23.5054 100.69 23.7428C101.072 23.9698 101.366 24.2381 101.572 24.5477L105.504 30.1355L109.436 24.5477C109.642 24.2381 109.936 23.9698 110.318 23.7428C110.7 23.5054 111.092 23.3868 111.494 23.3868C111.917 23.3868 112.32 23.4848 112.702 23.6809C113.084 23.8769 113.378 24.1504 113.584 24.5012C113.79 24.8418 113.894 25.2391 113.894 25.6931C113.894 26.1884 113.729 26.6528 113.398 27.0862L108.259 34.0672L114.528 42.4876C114.889 42.9726 115.07 43.5144 115.07 44.1129C115.07 44.7837 114.848 45.3203 114.404 45.7227C113.961 46.1252 113.383 46.3264 112.671 46.3264C111.845 46.3264 111.19 45.9807 110.705 45.2893L105.504 38.0607L100.303 45.2893C99.8079 45.9807 99.1526 46.3264 98.3374 46.3264C97.6357 46.3264 97.0578 46.12 96.6038 45.7072C96.1497 45.2945 95.9227 44.763 95.9227 44.1129C95.9227 43.5453 96.1033 43.0036 96.4645 42.4876Z" fill="white"/>
<path d="M116.633 43.8652V25.8479C116.633 25.0843 116.855 24.4858 117.299 24.0524C117.753 23.6086 118.326 23.3868 119.017 23.3868C119.719 23.3868 120.286 23.6035 120.72 24.0369C121.163 24.46 121.385 25.0636 121.385 25.8479V43.8652C121.385 44.6495 121.163 45.2583 120.72 45.6917C120.286 46.1148 119.719 46.3264 119.017 46.3264C118.326 46.3264 117.753 46.1097 117.299 45.6763C116.855 45.2325 116.633 44.6289 116.633 43.8652Z" fill="white"/>
<path d="M8.5293 43.7259V25.9408C8.5293 25.1978 8.76148 24.6199 9.22584 24.2071C9.70053 23.7841 10.3042 23.5725 11.0369 23.5725H17.12C18.2139 23.5725 19.2148 23.8047 20.1229 24.2691C21.031 24.7334 21.7482 25.3939 22.2745 26.2504C22.8111 27.0965 23.0794 28.0614 23.0794 29.1449C23.0794 31.3429 22.0991 32.8959 20.1384 33.804V33.8659C20.7988 33.9588 21.4232 34.1652 22.0113 34.4851C22.5995 34.7947 23.1155 35.1919 23.5592 35.677C24.0133 36.162 24.359 36.7037 24.5963 37.3022C24.8336 37.9007 24.9523 38.556 24.9523 39.268C24.9523 41.4557 24.2816 43.1481 22.9401 44.3451C21.6089 45.5421 19.8288 46.1406 17.5999 46.1406H11.0678C10.3248 46.1406 9.71601 45.9188 9.24132 45.475C8.76664 45.0313 8.5293 44.4483 8.5293 43.7259ZM13.2813 27.7518V32.5038H15.7579C16.5422 32.5038 17.1665 32.2871 17.6308 31.8537C18.0952 31.41 18.3274 30.796 18.3274 30.0117C18.3274 29.2894 18.0849 28.7321 17.5999 28.34C17.1252 27.9479 16.5112 27.7518 15.7579 27.7518H13.2813ZM13.2813 36.6986V41.9613H17.0272C17.9146 41.9613 18.6318 41.7188 19.1787 41.2338C19.736 40.7385 20.0146 40.0575 20.0146 39.1906C20.0146 38.427 19.7256 37.8233 19.1478 37.3796C18.5802 36.9256 17.7444 36.6986 16.6402 36.6986H13.2813Z" stroke="#051C40" stroke-width="2.83212" mask="url(#path-5-inside-1_1638_6846)"/>
<path d="M26.7324 43.7569V26.3277C26.7324 25.5022 26.9439 24.8366 27.367 24.331C27.7901 23.8253 28.4041 23.5725 29.209 23.5725H37.0722C37.7946 23.5725 38.3467 23.7892 38.7285 24.2226C39.1206 24.6457 39.3167 25.1565 39.3167 25.755C39.3167 26.1472 39.229 26.5083 39.0535 26.8385C38.8781 27.1584 38.6201 27.4216 38.2796 27.628C37.9494 27.8344 37.5469 27.9375 37.0722 27.9375H31.4844V32.5657H36.6853C37.4282 32.5657 38.001 32.7773 38.4034 33.2003C38.8059 33.6234 39.0071 34.1445 39.0071 34.7637C39.0071 35.3416 38.8007 35.8524 38.3879 36.2961C37.9752 36.7295 37.4076 36.9462 36.6853 36.9462H31.4844V41.7601H37.3509C38.0835 41.7601 38.6408 41.9768 39.0226 42.4102C39.4147 42.8333 39.6108 43.3493 39.6108 43.9581C39.6108 44.2987 39.5231 44.6443 39.3476 44.9952C39.1722 45.346 38.9142 45.6247 38.5737 45.8311C38.2331 46.0374 37.8255 46.1406 37.3509 46.1406H29.178C28.4763 46.1406 27.8933 45.9239 27.4289 45.4905C26.9646 45.0468 26.7324 44.4689 26.7324 43.7569Z" stroke="#051C40" stroke-width="2.83212" mask="url(#path-5-inside-1_1638_6846)"/>
<path d="M41.4063 43.5402V25.8479C41.4063 25.0843 41.6282 24.4858 42.0719 24.0524C42.5259 23.6086 43.0987 23.3868 43.79 23.3868C44.4917 23.3868 45.0593 23.6035 45.4927 24.0369C45.9364 24.46 46.1583 25.0636 46.1583 25.8479V41.7601H51.8081C52.5717 41.7601 53.1392 41.9923 53.5107 42.4567C53.8926 42.9107 54.0835 43.4422 54.0835 44.051C54.0525 44.6082 53.8306 45.0984 53.4179 45.5215C53.0051 45.9342 52.4685 46.1406 51.8081 46.1406H43.8829C43.1193 46.1406 42.5156 45.9084 42.0719 45.4441C41.6282 44.9694 41.4063 44.3348 41.4063 43.5402Z" stroke="#051C40" stroke-width="2.83212" mask="url(#path-5-inside-1_1638_6846)"/>
<path d="M64.9186 42.1471C65.8886 42.1471 66.7503 41.9562 67.5036 41.5744C68.2569 41.1926 68.8864 40.6611 69.392 39.9801C69.8976 39.2887 70.2691 38.5096 70.5065 37.6428C70.7541 36.7656 70.878 35.8369 70.878 34.8566C70.878 33.5357 70.651 32.3232 70.1969 31.2191C69.7429 30.1149 69.0618 29.2326 68.1537 28.5722C67.2559 27.9014 66.1776 27.5661 64.9186 27.5661C63.6597 27.5661 62.5762 27.9014 61.6681 28.5722C60.7703 29.2326 60.0944 30.1149 59.6404 31.2191C59.1863 32.3232 58.9593 33.5357 58.9593 34.8566C58.9593 36.9307 59.4701 38.6644 60.4917 40.0575C61.5236 41.4505 62.9993 42.1471 64.9186 42.1471ZM64.9186 46.5276C62.8135 46.5276 60.9303 46.0168 59.2689 44.9952C57.6178 43.9633 56.3279 42.5547 55.3992 40.7695C54.4807 38.9843 54.0215 37.0133 54.0215 34.8566C54.0215 33.2158 54.2847 31.6834 54.811 30.2594C55.3372 28.8353 56.0854 27.5918 57.0554 26.529C58.0357 25.4661 59.1915 24.6457 60.5226 24.0678C61.8538 23.4796 63.3192 23.1855 64.9186 23.1855C66.4871 23.1855 67.9422 23.49 69.2836 24.0988C70.6355 24.6973 71.7964 25.528 72.7664 26.5909C73.7364 27.6538 74.4897 28.8972 75.0263 30.3213C75.5629 31.7453 75.8312 33.2571 75.8312 34.8566C75.8312 36.4767 75.5732 37.9988 75.0573 39.4228C74.5413 40.8366 73.788 42.08 72.7973 43.1532C71.817 44.2264 70.6561 45.0571 69.3146 45.6453C67.9731 46.2335 66.5078 46.5276 64.9186 46.5276Z" stroke="#051C40" stroke-width="2.83212" mask="url(#path-5-inside-1_1638_6846)"/>
<path d="M77.054 42.4876L83.3384 34.0672L78.1995 27.0862C77.8589 26.6631 77.6887 26.1988 77.6887 25.6931C77.6887 25.012 77.9157 24.46 78.3697 24.0369C78.8341 23.6035 79.412 23.3868 80.1033 23.3868C80.5058 23.3868 80.8979 23.5054 81.2797 23.7428C81.6616 23.9698 81.9556 24.2381 82.162 24.5477L86.0937 30.1355L90.0253 24.5477C90.2317 24.2381 90.5257 23.9698 90.9076 23.7428C91.2894 23.5054 91.6815 23.3868 92.084 23.3868C92.507 23.3868 92.9095 23.4848 93.2913 23.6809C93.6731 23.8769 93.9672 24.1504 94.1736 24.5012C94.38 24.8418 94.4832 25.2391 94.4832 25.6931C94.4832 26.1884 94.3181 26.6528 93.9878 27.0862L88.8489 34.0672L95.1178 42.4876C95.479 42.9726 95.6596 43.5144 95.6596 44.1129C95.6596 44.7837 95.4377 45.3203 94.994 45.7227C94.5502 46.1252 93.9724 46.3264 93.2603 46.3264C92.4348 46.3264 91.7795 45.9807 91.2945 45.2893L86.0937 38.0607L80.8928 45.2893C80.3974 45.9807 79.7422 46.3264 78.927 46.3264C78.2253 46.3264 77.6474 46.12 77.1933 45.7072C76.7393 45.2945 76.5123 44.763 76.5123 44.1129C76.5123 43.5453 76.6928 43.0036 77.054 42.4876Z" stroke="#051C40" stroke-width="2.83212" mask="url(#path-5-inside-1_1638_6846)"/>
<path d="M96.4645 42.4876L102.749 34.0672L97.6099 27.0862C97.2694 26.6631 97.0991 26.1988 97.0991 25.6931C97.0991 25.012 97.3261 24.46 97.7802 24.0369C98.2445 23.6035 98.8224 23.3868 99.5138 23.3868C99.9162 23.3868 100.308 23.5054 100.69 23.7428C101.072 23.9698 101.366 24.2381 101.572 24.5477L105.504 30.1355L109.436 24.5477C109.642 24.2381 109.936 23.9698 110.318 23.7428C110.7 23.5054 111.092 23.3868 111.494 23.3868C111.917 23.3868 112.32 23.4848 112.702 23.6809C113.084 23.8769 113.378 24.1504 113.584 24.5012C113.79 24.8418 113.894 25.2391 113.894 25.6931C113.894 26.1884 113.729 26.6528 113.398 27.0862L108.259 34.0672L114.528 42.4876C114.889 42.9726 115.07 43.5144 115.07 44.1129C115.07 44.7837 114.848 45.3203 114.404 45.7227C113.961 46.1252 113.383 46.3264 112.671 46.3264C111.845 46.3264 111.19 45.9807 110.705 45.2893L105.504 38.0607L100.303 45.2893C99.8079 45.9807 99.1526 46.3264 98.3374 46.3264C97.6357 46.3264 97.0578 46.12 96.6038 45.7072C96.1497 45.2945 95.9227 44.763 95.9227 44.1129C95.9227 43.5453 96.1033 43.0036 96.4645 42.4876Z" stroke="#051C40" stroke-width="2.83212" mask="url(#path-5-inside-1_1638_6846)"/>
<path d="M116.633 43.8652V25.8479C116.633 25.0843 116.855 24.4858 117.299 24.0524C117.753 23.6086 118.326 23.3868 119.017 23.3868C119.719 23.3868 120.286 23.6035 120.72 24.0369C121.163 24.46 121.385 25.0636 121.385 25.8479V43.8652C121.385 44.6495 121.163 45.2583 120.72 45.6917C120.286 46.1148 119.719 46.3264 119.017 46.3264C118.326 46.3264 117.753 46.1097 117.299 45.6763C116.855 45.2325 116.633 44.6289 116.633 43.8652Z" stroke="#051C40" stroke-width="2.83212" mask="url(#path-5-inside-1_1638_6846)"/>
<path d="M135.509 16.6548C132.11 16.6687 129.324 13.9278 129.313 10.558C129.301 7.13503 132.035 4.3676 135.444 4.3526C138.825 4.3376 141.594 7.10271 141.603 10.5014C141.612 13.862 138.86 16.641 135.509 16.6548ZM135.454 15.9762C138.449 15.9774 140.922 13.5216 140.926 10.5441C140.929 7.49971 138.483 5.03118 135.46 5.02888C132.445 5.02657 129.99 7.49278 129.99 10.5233C129.99 13.5135 132.457 15.9751 135.454 15.9762Z" fill="#051C40" stroke="#051C40" stroke-width="0.0721283" stroke-miterlimit="10"/>
<path d="M136.827 10.5337C136.945 10.5798 137.065 10.6133 137.175 10.6722C137.467 10.8291 137.632 11.0934 137.774 11.3761C138.055 11.9347 138.241 12.5302 138.455 13.1141C138.485 13.1949 138.515 13.2757 138.543 13.3565C138.659 13.6796 138.515 13.9866 138.189 14.102C138.092 14.1366 137.99 14.1574 137.887 14.1632C137.579 14.1793 137.429 14.0743 137.327 13.7823C137.102 13.1372 136.897 12.4863 136.631 11.8574C136.598 11.7789 136.557 11.7027 136.52 11.6254C136.32 11.2111 135.987 11.0138 135.53 11.0149C135.13 11.0161 134.729 11.0161 134.329 11.0103C134.231 11.0092 134.242 11.0645 134.242 11.1257C134.242 11.982 134.242 12.8383 134.242 13.6958C134.242 13.9739 134.13 14.1274 133.863 14.2036C133.664 14.2601 133.468 14.2417 133.284 14.1528C133.097 14.0616 133.009 13.9128 133.01 13.6981C133.014 12.8199 133.012 11.9416 133.012 11.0634C133.012 9.98781 133.012 8.91108 133.012 7.8355C133.012 7.67509 133.022 7.51583 133.066 7.36234C133.172 6.99651 133.449 6.80724 133.894 6.80263C134.29 6.79801 134.685 6.79801 135.082 6.80263C135.581 6.80955 136.082 6.77147 136.579 6.82917C137.099 6.88918 137.564 7.07152 137.9 7.49737C138.722 8.53948 138.236 10.094 136.973 10.4771C136.924 10.4898 136.867 10.4829 136.827 10.5337ZM135.199 9.88857C135.199 9.88741 135.199 9.88741 135.199 9.88626C135.47 9.88626 135.741 9.89088 136.011 9.8851C136.571 9.87356 136.979 9.42348 136.974 8.82684C136.971 8.27866 136.601 7.93014 136.016 7.92667C135.556 7.92321 135.096 7.92437 134.636 7.92552C134.346 7.92552 134.245 8.02246 134.242 8.30982C134.239 8.80029 134.243 9.28961 134.239 9.78009C134.238 9.87818 134.277 9.89203 134.36 9.89088C134.639 9.88511 134.92 9.88857 135.199 9.88857Z" fill="#051C40" stroke="#051C40" stroke-width="0.0721283" stroke-miterlimit="10"/>
</g>
<defs>
<clipPath id="clip0_1638_6846">
<rect width="141.606" height="70.8029" fill="white"/>
</clipPath>
</defs>
</svg>
