<svg width="103" height="52" viewBox="0 0 103 52" fill="none" xmlns="http://www.w3.org/2000/svg">
<g clip-path="url(#clip0_1638_6822)">
<path d="M50.3644 50.5251C41.3841 50.5138 32.6201 49.1154 24.0525 46.4297C16.806 44.1577 9.91713 41.1109 3.49615 37.0406C2.95075 36.6944 2.42411 36.3207 1.89372 35.9533C1.08687 35.3959 0.946769 35.0485 1.17944 34.1062C2.11888 30.2896 3.74508 26.7704 5.86539 23.4836C9.72574 17.4849 14.9283 12.9297 21.1029 9.44174C27.2774 5.95376 33.9448 3.85924 40.9 2.61077C48.5731 1.23607 56.2713 1.13984 63.9907 2.15586C72.4069 3.25687 80.4704 5.61759 88.2511 8.98934C93.0011 11.0254 97.5635 13.4729 101.886 16.304C102.762 16.8838 102.908 17.255 102.628 18.2398C100.361 26.2142 95.9981 32.844 89.7234 38.2353C83.7353 43.3779 76.7639 46.5472 69.1383 48.3768C62.9875 49.8328 56.6854 50.5539 50.3644 50.5251ZM15.8915 29.6647C15.8915 31.2244 15.8915 32.7849 15.8915 34.3462C15.8915 34.6186 15.8603 34.9285 16.2668 34.9173C18.0531 34.8661 19.8507 35.0885 21.622 34.6949C23.4246 34.2937 24.5929 33.1877 25.1909 31.4643C25.6124 30.2471 25.705 28.9849 25.6137 27.7151C25.4348 25.2157 24.3815 23.2999 21.9585 22.3139C21.2017 22.0052 20.3949 21.9164 19.593 21.879C18.469 21.8061 17.3405 21.9085 16.248 22.1826C15.6301 22.3488 15.8515 22.8412 15.8603 23.2112C15.8715 23.6648 16.228 23.4749 16.472 23.4436C17.3786 23.3058 18.2973 23.264 19.2127 23.3186C21.4957 23.5023 23.0043 24.6108 23.5197 26.5017C23.8821 27.833 23.8821 29.2369 23.5197 30.5683C23.1369 32.0179 22.225 32.9852 20.7213 33.2589C20.0308 33.3839 19.3116 33.3714 18.6048 33.3839C17.6666 33.4039 17.6678 33.3839 17.6678 32.4254C17.6678 29.8876 17.6678 27.349 17.6678 24.8095C17.6678 24.5958 17.7654 24.3397 17.5152 24.1847C16.9448 23.8298 15.8978 24.3821 15.889 25.0507C15.8878 26.5842 15.8928 28.1238 15.8915 29.6647ZM71.1197 32.6128C71.0602 32.5132 71.0059 32.4106 70.9571 32.3054C70.2866 30.492 69.6261 28.6812 68.9556 26.8666C68.5116 25.6769 68.7592 25.8906 67.5221 25.8756C66.7578 25.8656 66.714 25.933 66.9879 26.6541C67.9887 29.2973 68.9894 31.9417 70.0002 34.5786C70.0658 34.7293 70.0976 34.8926 70.0933 35.0569C70.0889 35.2212 70.0486 35.3826 69.9751 35.5297C69.3985 36.7794 68.4891 37.5092 67.0517 37.4292C66.3487 37.3905 66.41 37.9954 66.3174 38.3803C66.1999 38.8689 66.6564 38.7977 66.9429 38.8127C69.0982 38.9376 70.6356 38.0154 71.4938 36.0196C72.0917 34.6274 72.6196 33.2039 73.1612 31.7892C73.8326 30.0455 74.4968 28.2984 75.154 26.5479C75.2278 26.3517 75.4041 26.1205 75.1327 25.9306C74.6711 25.6044 73.5816 25.9568 73.3814 26.4929C72.6371 28.4987 71.8966 30.5058 71.1197 32.6128ZM88.4175 18.7834C86.5861 18.8996 84.9925 19.572 83.4263 20.3168C83.0786 20.4818 82.9072 20.7467 82.9447 21.2029C83.1674 23.9922 82.4831 26.5254 80.693 28.7199C79.9788 29.5947 79.1031 30.2546 78.0236 30.8145C78.0574 26.8991 78.9968 23.3624 81.1759 20.1693C80.8894 20.0944 80.8394 20.2693 80.7506 20.3618C80.0788 21.0617 79.5121 21.8552 79.0681 22.7175C77.6483 25.4582 77.1217 28.3663 77.3306 31.4293C77.3606 31.8717 77.5132 31.8942 77.871 31.7343C78.7334 31.3648 79.5348 30.8667 80.2477 30.2571C82.8621 27.9539 83.8429 24.987 83.7053 21.594C83.6852 21.1154 83.8304 20.9017 84.2419 20.7055C88.0822 18.8471 91.8725 18.9434 95.6253 20.9417C95.7954 21.0329 95.9368 21.2316 96.1745 21.1454C96.202 20.9779 96.0756 20.9154 95.9806 20.8504C94.3331 19.7332 92.5255 19.0121 90.5428 18.8296C89.7923 18.7609 89.1931 18.5422 88.6326 18.0548C87.0177 16.6489 85.3265 16.4627 83.4651 17.5237C82.9522 17.8161 82.8659 17.6637 82.6833 17.2113C81.5737 14.4531 79.7011 12.3373 77.1517 10.8177C76.8102 10.614 76.6401 10.5677 76.5437 11.0501C76.3317 12.0271 76.2894 13.0332 76.4186 14.0245C76.4612 14.3119 76.3436 14.6581 76.6551 14.8993C76.8627 14.6118 76.7802 14.2869 76.7952 13.9857C76.8339 13.3221 76.8602 12.6598 77.0328 12.0124C77.0979 11.7712 77.1667 11.6175 77.4394 11.8337C77.9998 12.2799 78.599 12.6748 79.1156 13.1772C80.7618 14.7755 81.8764 16.6964 82.5569 18.8821C85.334 17.2038 87.019 17.1675 88.4175 18.7834ZM63.8331 30.7607H65.0202C67.0055 30.7607 67.1218 30.6108 66.674 28.6362C66.3099 27.0353 65.1541 25.9605 63.6017 25.7831C61.9492 25.5944 60.5407 26.358 59.8139 27.8451C59.2347 29.0324 59.1534 30.2933 59.3736 31.563C59.6438 33.1139 60.4144 34.3349 62.008 34.8123C63.6017 35.2897 65.0553 35.0373 66.3174 33.9288C66.8891 33.4289 66.8441 33.3264 66.3687 32.7753C65.9384 32.2754 65.6932 32.6715 65.3968 32.9002C64.5211 33.5688 63.5529 33.775 62.5196 33.3601C61.5614 32.979 61.2124 32.1454 61.0723 31.1906C61.026 30.8694 61.1086 30.7407 61.4564 30.7507C62.2507 30.7745 63.0425 30.7607 63.8331 30.7607ZM41.9958 30.7607C42.7876 30.7607 43.5807 30.7532 44.3725 30.7607C44.7566 30.7607 44.9517 30.6257 44.9567 30.2183C44.9655 29.4685 44.8992 28.7187 44.6227 28.0101C44.1348 26.7604 43.2329 25.9743 41.8969 25.8181C40.5209 25.6556 39.27 25.998 38.4081 27.1803C37.2936 28.7112 37.2022 30.4296 37.6763 32.1792C38.6058 35.6209 42.5887 35.6271 44.4313 33.9763C45.0142 33.4539 44.993 33.3151 44.4976 32.7753C44.0811 32.3191 43.8421 32.6903 43.5694 32.9127C42.7188 33.6026 41.7656 33.7388 40.7524 33.3964C39.7641 33.0627 39.3951 32.2416 39.22 31.2943C39.1499 30.9132 39.22 30.722 39.6841 30.7445C40.4534 30.787 41.2252 30.7582 41.9958 30.7582V30.7607ZM55.0179 25.7718C54.8503 25.7718 54.6839 25.7718 54.5175 25.7718C52.8225 25.8281 51.788 27.2153 51.6992 28.2713C51.5841 29.6297 52.2596 30.3958 53.9508 30.8232C54.6138 30.9919 55.2868 31.1281 55.9411 31.3231C56.4627 31.4806 56.8167 31.843 56.7729 32.4241C56.7291 33.0052 56.3351 33.2989 55.7984 33.4239C55.2384 33.5558 54.656 33.5615 54.0935 33.4407C53.5309 33.3199 53.0023 33.0755 52.5461 32.7253C51.9444 32.2841 51.808 32.8828 51.5215 33.1327C51.1625 33.4439 51.3965 33.6738 51.6604 33.8825C53.0702 34.991 54.6626 35.2572 56.3739 34.8398C57.7499 34.5074 58.5167 33.5701 58.5367 32.3029C58.5567 30.9894 57.9225 30.1871 56.5052 29.7497C56.2087 29.6585 55.8985 29.6072 55.597 29.5322C55.0354 29.391 54.4387 29.3623 53.9196 29.0773C53.3554 28.7674 53.2566 28.2025 53.6694 27.7202C53.9008 27.449 54.2148 27.3452 54.545 27.2977C55.4644 27.1603 56.3501 27.2977 57.1107 27.8264C57.7461 28.2738 57.9163 27.6927 58.1877 27.4065C58.563 27.0116 58.1377 26.8316 57.8875 26.6454C57.0406 26.003 56.0636 25.7668 55.0179 25.7693V25.7718ZM33.4245 32.714C32.6802 30.697 31.9972 28.8486 31.3154 27.0003C30.8826 25.8256 30.8838 25.8381 29.6354 25.8918C29.1926 25.9106 29.085 26.068 29.2401 26.4754C30.2471 29.1098 31.2541 31.7455 32.2423 34.3874C32.4925 35.061 33.0379 34.9148 33.5433 34.951C34.0086 34.9848 34.3514 34.8673 34.5215 34.3862C34.7479 33.7401 35.0006 33.1027 35.242 32.4616C35.9838 30.502 36.7219 28.5412 37.4712 26.5879C37.6226 26.193 37.6926 25.9168 37.1034 25.8981C35.9576 25.8618 35.9588 25.8443 35.561 26.9316C35.4776 27.1649 35.3922 27.3986 35.3046 27.6327C34.6954 29.2723 34.0862 30.9194 33.4245 32.7115V32.714ZM47.5511 27.2153C47.3009 26.8278 47.1033 26.5154 46.8131 26.2717C46.6159 26.1008 46.3865 25.9711 46.1384 25.8902C45.8902 25.8092 45.6284 25.7788 45.3683 25.8006C45.1644 25.8156 44.8829 25.8956 45.1531 26.1755C46.075 27.1478 46.1688 28.3663 46.1826 29.6022C46.2001 31.1811 46.2001 32.7603 46.1826 34.3399C46.1826 34.7611 46.3077 34.9648 46.753 34.9273C46.9393 34.9079 47.1271 34.9079 47.3134 34.9273C47.8138 34.9835 47.9664 34.7736 47.9577 34.2862C47.9327 32.894 47.9489 31.5006 47.9502 30.1084C47.9341 29.525 48.055 28.9459 48.3029 28.4175C48.6782 27.6677 49.4725 27.154 50.2318 27.3465C50.9624 27.5327 51.2088 27.2103 51.4965 26.6479C51.7667 26.1205 51.6216 25.9518 51.1137 25.8531C49.6789 25.5706 48.4718 25.9181 47.5511 27.2065V27.2153ZM28.5121 29.6697V26.9878C28.5121 25.7668 28.6147 25.9106 27.4088 25.8631C26.8371 25.8431 26.697 26.073 26.7083 26.5967C26.7358 27.8851 26.717 29.1736 26.7183 30.4633C26.7183 31.4193 26.687 32.3766 26.7333 33.3301C26.8046 34.7736 28.1806 35.5022 29.4365 34.7998C29.6629 34.6749 29.783 34.5286 29.7067 34.2499C29.6529 34.0537 29.6892 33.8088 29.3852 33.8113C28.6272 33.8113 28.5096 33.3114 28.5096 32.7215C28.5071 31.698 28.5108 30.6795 28.5121 29.661V29.6697ZM78.1837 23.2761C77.2693 23.1374 76.3473 23.1037 75.4417 22.9237C73.6766 22.5726 72.2093 21.7502 71.1222 20.2856C70.8858 19.9681 70.9796 19.8994 71.3124 19.8132C72.8819 19.3853 74.5288 19.3237 76.1259 19.6332C76.5975 19.7257 77.0466 19.9756 77.5457 19.9106C77.5833 19.7019 77.4344 19.6607 77.3343 19.617C74.9513 18.4572 72.5445 18.6584 70.1265 19.492C69.7875 19.6082 69.8876 19.7882 70.0289 20.0119C70.8983 21.3866 72.0517 22.4388 73.569 23.0387C75.0388 23.6262 76.6629 23.7067 78.1837 23.2674V23.2761ZM73.7804 18.2835C73.5991 17.4487 73.2801 16.6689 73.155 15.8253C73.0899 15.3679 73.175 15.2329 73.6391 15.2954C75.2878 15.5191 76.8527 15.949 78.2087 16.9726C78.4039 17.1188 78.609 17.3125 78.8955 17.3325C78.8955 17.2562 78.9205 17.2075 78.903 17.1837C77.2317 15.2392 74.9901 14.6556 72.5546 14.5294C72.3481 14.5194 72.3044 14.6243 72.3256 14.798C72.5033 16.0778 72.9073 17.2737 73.7804 18.2748V18.2835ZM27.5489 22.1789C26.8621 22.1926 26.403 22.6675 26.413 23.3549C26.4136 23.5041 26.4442 23.6517 26.5029 23.7889C26.5616 23.9262 26.6472 24.0503 26.7547 24.1538C26.8623 24.2574 26.9895 24.3384 27.1289 24.392C27.2683 24.4456 27.4171 24.4707 27.5664 24.4659C28.2456 24.4521 28.7785 23.9435 28.776 23.3086C28.7719 23.1529 28.7367 22.9995 28.6724 22.8575C28.6082 22.7155 28.5162 22.5878 28.4019 22.4818C28.2876 22.3757 28.1533 22.2935 28.0068 22.24C27.8604 22.1865 27.7047 22.1628 27.5489 22.1701V22.1789Z" fill="#051C40"/>
<path d="M97.0213 7.41089C96.8587 7.80581 96.6961 8.20197 96.531 8.59563C96.4759 8.7206 96.4522 8.89806 96.2658 8.89556C96.0794 8.89306 96.0244 8.75684 95.9631 8.61937C95.7817 8.21071 95.5978 7.80456 95.3551 7.26343C95.1887 7.81081 95.2638 8.21821 95.23 8.61313C95.2175 8.77184 95.2 8.90931 94.9986 8.90556C94.7972 8.90181 94.7484 8.78059 94.7484 8.61688L94.8235 6.2524C94.8235 6.11368 94.8723 6.00996 95.0324 6.00246C95.1054 5.99553 95.1787 6.0135 95.2402 6.05343C95.3018 6.09336 95.348 6.15292 95.3714 6.22241C95.5465 6.62232 95.7141 7.02473 95.9005 7.41839C96.0031 7.63709 96.0394 7.89704 96.287 8.0795C96.5372 7.49463 96.7762 6.92601 97.0176 6.35863C97.0989 6.16742 97.1639 5.93997 97.4467 6.01371C97.6968 6.08119 97.6255 6.30989 97.633 6.48235C97.6606 7.1672 97.6768 7.85705 97.6956 8.53689C97.6956 8.69936 97.7356 8.88557 97.4854 8.91181C97.2077 8.93431 97.194 8.7456 97.1927 8.54564V7.44339L97.0213 7.41089Z" fill="#051C40"/>
<path d="M93.46 5.99124H94.2105C94.3644 5.99124 94.517 6.00249 94.5258 6.19995C94.5345 6.3974 94.4007 6.45739 94.2368 6.42614C93.7077 6.32867 93.6714 6.62985 93.6939 7.03601C93.7189 7.51215 93.7027 7.9908 93.6939 8.46819C93.6939 8.66815 93.7414 8.91559 93.4124 8.90684C93.0835 8.8981 93.1623 8.63566 93.1623 8.44695C93.1523 7.96955 93.1422 7.49091 93.1623 7.01477C93.181 6.63235 93.1435 6.35242 92.6506 6.42365C92.5093 6.44365 92.3454 6.4324 92.3454 6.21744C92.3454 6.00249 92.498 5.99625 92.6481 5.99375C92.9196 5.98875 93.1898 5.99249 93.46 5.99124Z" fill="#051C40"/>
<path d="M63.0476 29.2998C62.5084 29.2998 61.968 29.2936 61.4289 29.2998C61.1999 29.2998 61.0924 29.2661 61.1299 28.9899C61.255 28.0888 62.1206 27.3078 63.0713 27.2715C64.0433 27.234 64.8226 27.8851 65.0203 28.8674C65.0841 29.1899 65.0203 29.3211 64.665 29.3036C64.1271 29.2811 63.5867 29.2998 63.0476 29.2998Z" fill="#051C40"/>
<path d="M41.2365 29.301C40.7173 29.301 40.1957 29.281 39.6778 29.301C39.3288 29.3198 39.2475 29.2085 39.3151 28.8736C39.4204 28.4044 39.6867 27.9868 40.0677 27.6931C40.4488 27.3994 40.9206 27.248 41.4016 27.2652C42.3448 27.2865 43.0416 27.9551 43.1779 28.9398C43.2179 29.2248 43.1304 29.306 42.8564 29.2985C42.3173 29.2898 41.7769 29.2998 41.2365 29.301Z" fill="#051C40"/>
</g>
<defs>
<clipPath id="clip0_1638_6822">
<rect width="102.19" height="51.0948" fill="white" transform="translate(0.568359 0.452881)"/>
</clipPath>
</defs>
</svg>
