<svg width="25" height="24" viewBox="0 0 25 24" fill="none" xmlns="http://www.w3.org/2000/svg">
<path fill-rule="evenodd" clip-rule="evenodd" d="M0.425781 11.9298C0.425781 5.34116 5.76695 0 12.3556 0C18.9443 0 24.2854 5.34116 24.2854 11.9298C24.2854 18.5185 18.9443 23.8596 12.3556 23.8596C5.76695 23.8596 0.425781 18.5185 0.425781 11.9298ZM18.4523 8.98376C18.3059 8.42157 17.8747 7.97886 17.3272 7.82861C16.3349 7.55556 12.3556 7.55556 12.3556 7.55556C12.3556 7.55556 8.37632 7.55556 7.38398 7.82861C6.83644 7.97886 6.40523 8.42157 6.25889 8.98376C5.99303 10.0027 5.99303 12.1287 5.99303 12.1287C5.99303 12.1287 5.99303 14.2546 6.25889 15.2735C6.40523 15.8357 6.83644 16.2784 7.38398 16.4288C8.37632 16.7018 12.3556 16.7018 12.3556 16.7018C12.3556 16.7018 16.3349 16.7018 17.3272 16.4288C17.8747 16.2784 18.3059 15.8357 18.4523 15.2735C18.7182 14.2546 18.7182 12.1287 18.7182 12.1287C18.7182 12.1287 18.7182 10.0027 18.4523 8.98376Z" fill="white"/>
<path fill-rule="evenodd" clip-rule="evenodd" d="M11.1641 14.3157V10.3391L14.3453 12.3275L11.1641 14.3157Z" fill="white"/>
</svg>
