<svg width="24" height="24" viewBox="0 0 24 24" fill="none" xmlns="http://www.w3.org/2000/svg">
<path fill-rule="evenodd" clip-rule="evenodd" d="M0 11.9298C0 5.34116 5.34116 0 11.9298 0C18.5185 0 23.8596 5.34116 23.8596 11.9298C23.8596 18.5185 18.5185 23.8596 11.9298 23.8596C5.34116 23.8596 0 18.5185 0 11.9298ZM8.43012 9.88086H5.72656V18.0039H8.43012V9.88086ZM8.6079 7.36794C8.59035 6.57148 8.0208 5.96484 7.09592 5.96484C6.17105 5.96484 5.56641 6.57148 5.56641 7.36794C5.56641 8.1479 6.15318 8.77201 7.06083 8.77201H7.07811C8.0208 8.77201 8.6079 8.1479 8.6079 7.36794ZM18.1794 13.3465C18.1794 10.8514 16.8456 9.69019 15.0666 9.69019C13.6311 9.69019 12.9885 10.4786 12.6297 11.0317V9.88115H9.92578C9.96142 10.6434 9.92578 18.0042 9.92578 18.0042H12.6297V13.4676C12.6297 13.2249 12.6472 12.9827 12.7187 12.8089C12.9141 12.3239 13.359 11.8217 14.1059 11.8217C15.0846 11.8217 15.4758 12.5666 15.4758 13.6582V18.004H18.1793L18.1794 13.3465Z" fill="white"/>
</svg>
