<svg width="24" height="24" viewBox="0 0 24 24" fill="none" xmlns="http://www.w3.org/2000/svg">
<path fill-rule="evenodd" clip-rule="evenodd" d="M0.140625 11.9298C0.140625 5.34116 5.48179 0 12.0704 0C18.6591 0 24.0003 5.34116 24.0003 11.9298C24.0003 18.5185 18.6591 23.8596 12.0704 23.8596C5.48179 23.8596 0.140625 18.5185 0.140625 11.9298ZM11.7132 9.69671L11.7382 10.1095L11.321 10.059C9.80223 9.8652 8.47542 9.20809 7.34889 8.10449L6.79814 7.5569L6.65629 7.96127C6.35588 8.86269 6.5478 9.81465 7.17365 10.4549C7.50744 10.8087 7.43234 10.8593 6.85656 10.6487C6.65629 10.5813 6.48105 10.5307 6.46436 10.556C6.40595 10.615 6.60622 11.3816 6.76477 11.6849C6.98173 12.1061 7.42399 12.5189 7.90799 12.7632L8.31687 12.957L7.83288 12.9654C7.36558 12.9654 7.34889 12.9738 7.39896 13.1507C7.56585 13.6983 8.22508 14.2796 8.95941 14.5324L9.47678 14.7093L9.02617 14.9789C8.3586 15.3664 7.5742 15.5854 6.7898 15.6023C6.41429 15.6107 6.10554 15.6444 6.10554 15.6697C6.10554 15.7539 7.12359 16.2257 7.71606 16.411C9.49347 16.9586 11.6047 16.7227 13.1902 15.7876C14.3167 15.1221 15.4432 13.7994 15.9689 12.5189C16.2527 11.8365 16.5364 10.5897 16.5364 9.99157C16.5364 9.60404 16.5614 9.55349 17.0287 9.09015C17.3041 8.82057 17.5628 8.52571 17.6128 8.44147C17.6963 8.2814 17.6879 8.2814 17.2624 8.42462C16.5531 8.67735 16.4529 8.64365 16.8034 8.26455C17.0621 7.99497 17.3708 7.50635 17.3708 7.36313C17.3708 7.33786 17.2457 7.37998 17.1038 7.4558C16.9536 7.54005 16.6198 7.66641 16.3695 7.74223L15.9189 7.88545L15.51 7.60744C15.2847 7.4558 14.9676 7.28731 14.8007 7.23677C14.3751 7.11882 13.7242 7.13567 13.3404 7.27046C12.2973 7.64957 11.6381 8.6268 11.7132 9.69671Z" fill="white"/>
</svg>
