<svg width="264" height="58" viewBox="0 0 264 58" fill="none" xmlns="http://www.w3.org/2000/svg">
<path d="M176.334 13.7168H171.033V42.9805H176.334V13.7168Z" fill="white"/>
<path d="M198.917 24.9457C197.932 23.9607 196.732 23.1547 195.353 22.5817C193.956 21.9906 192.416 21.7041 190.75 21.7041C189.067 21.7041 187.545 21.9906 186.148 22.5817C184.751 23.1727 183.569 23.9607 182.584 24.9457C181.599 25.9486 180.829 27.0948 180.273 28.438C179.718 29.7633 179.432 31.1781 179.432 32.6645C179.432 34.151 179.718 35.5658 180.273 36.8911C180.829 38.2164 181.599 39.3984 182.584 40.4013C183.569 41.4043 184.769 42.2102 186.148 42.7833C187.545 43.3743 189.067 43.6608 190.75 43.6608C192.434 43.6608 193.956 43.3743 195.353 42.7833C196.75 42.1923 197.932 41.4043 198.917 40.4013C199.902 39.3984 200.672 38.2164 201.227 36.8911C201.782 35.5658 202.051 34.151 202.051 32.6645C202.051 31.1781 201.764 29.7633 201.227 28.438C200.69 27.1127 199.902 25.9486 198.917 24.9457ZM196.356 34.9569C196.123 35.7091 195.747 36.4255 195.263 37.0702C194.762 37.715 194.153 38.2343 193.401 38.6283C192.649 39.0223 191.771 39.2193 190.75 39.2193C189.729 39.2193 188.852 39.0223 188.1 38.6283C187.348 38.2343 186.721 37.715 186.237 37.0702C185.736 36.4255 185.377 35.727 185.145 34.9569C184.912 34.2047 184.786 33.4346 184.786 32.6825C184.786 31.9482 184.912 31.196 185.145 30.4259C185.377 29.6558 185.754 28.9573 186.237 28.3126C186.739 27.6858 187.348 27.1664 188.1 26.7724C188.852 26.3784 189.729 26.1814 190.75 26.1814C191.771 26.1814 192.649 26.3784 193.401 26.7724C194.153 27.1664 194.78 27.6858 195.263 28.3126C195.765 28.9394 196.123 29.6379 196.356 30.4259C196.589 31.196 196.714 31.9482 196.714 32.6825C196.714 33.4346 196.607 34.1868 196.356 34.9569Z" fill="white"/>
<path d="M219.405 33.5598C219.405 34.312 219.28 35.0283 219.029 35.691C218.778 36.3536 218.42 36.9267 217.972 37.4282C217.525 37.9296 216.987 38.3057 216.361 38.5923C215.734 38.8788 215.053 39.0042 214.337 39.0042C213.173 39.0042 212.224 38.646 211.489 37.9296C210.755 37.2133 210.397 36.1924 210.397 34.8851V22.4023H205.096V34.903C205.096 37.4998 205.776 39.5773 207.155 41.1175C208.534 42.6577 210.54 43.4278 213.173 43.4278C214.015 43.4278 214.767 43.3382 215.411 43.1591C216.074 42.98 216.647 42.7651 217.167 42.4786C217.668 42.192 218.116 41.9055 218.51 41.5831C218.904 41.2608 219.226 40.9563 219.495 40.6698L219.638 42.998H224.706V22.4023H219.405V33.5598Z" fill="white"/>
<path d="M243.475 42.9805H248.597V13.7168H243.35V22.8863C242.956 22.743 242.616 22.5998 242.311 22.4923C242.007 22.367 241.684 22.2774 241.326 22.2058C240.968 22.1341 240.556 22.0625 240.108 22.0267C239.661 21.9909 239.088 21.955 238.407 21.955C237.906 21.955 237.297 22.0267 236.616 22.152C235.918 22.2774 235.219 22.5102 234.485 22.8147C233.751 23.1191 233.034 23.5131 232.3 23.9788C231.584 24.4444 230.921 25.0354 230.33 25.7339C229.614 26.5756 229.005 27.6144 228.521 28.8322C228.038 30.05 227.805 31.4648 227.805 33.0588C227.805 34.7601 228.073 36.2645 228.611 37.5898C229.148 38.8972 229.846 40.0075 230.724 40.9209C231.584 41.8343 232.586 42.5148 233.697 42.9805C234.807 43.4461 235.918 43.6789 237.064 43.6789C237.87 43.6789 238.604 43.5894 239.249 43.4103C239.893 43.2312 240.467 43.0163 241.004 42.7477C241.523 42.479 241.989 42.1925 242.365 41.8701C242.759 41.5477 243.081 41.2433 243.35 40.9567L243.475 42.9805ZM242.222 37.4107C241.828 37.948 241.326 38.3778 240.699 38.7002C240.073 39.0404 239.302 39.2016 238.407 39.2016C236.706 39.2016 235.398 38.6106 234.503 37.4465C233.607 36.2824 233.16 34.8139 233.16 33.0588C233.16 32.217 233.285 31.3932 233.536 30.6231C233.786 29.853 234.145 29.1725 234.592 28.5815C235.112 27.9367 235.703 27.4174 236.383 27.0234C237.064 26.6293 237.941 26.4323 238.98 26.4323C240.037 26.4323 240.896 26.5219 241.559 26.6831C242.24 26.8443 242.831 27.1308 243.332 27.5427V33.8647C243.332 34.4557 243.242 35.0646 243.063 35.6914C242.902 36.3182 242.616 36.8913 242.222 37.4107Z" fill="white"/>
<path d="M89.4743 27.3457C90.2982 25.9309 90.7101 24.3012 90.7101 22.4565C90.7101 21.5252 90.531 20.5402 90.1549 19.5194C89.7788 18.4986 89.1878 17.5494 88.3819 16.6897C87.576 15.8122 86.5014 15.1137 85.194 14.5585C83.8688 14.0033 82.2748 13.7168 80.3944 13.7168H70.4727V42.9805H75.9171V31.429H80.1795L86.2507 42.9805H92.6264L85.7134 30.7306C87.3969 29.8888 88.6505 28.7605 89.4743 27.3457ZM83.7792 25.6443C82.9912 26.4682 81.8629 26.8801 80.4302 26.8801H75.8992V18.409H80.4302C81.7734 18.409 82.8658 18.803 83.7076 19.591C84.5493 20.379 84.9612 21.3999 84.9612 22.6714C84.9612 23.8355 84.5672 24.8384 83.7792 25.6443Z" fill="white"/>
<path d="M112.452 25.4292C111.647 24.3188 110.572 23.4234 109.247 22.7428C107.921 22.0623 106.292 21.7041 104.375 21.7041C102.781 21.7041 101.349 21.9727 100.041 22.5279C98.734 23.0831 97.6236 23.8532 96.6744 24.8024C95.7252 25.7695 95.0089 26.8978 94.4716 28.2052C93.9522 29.5125 93.6836 30.9094 93.6836 32.4317C93.6836 34.0973 93.9522 35.6196 94.4716 36.9986C94.991 38.3776 95.7432 39.5596 96.7103 40.5267C97.6773 41.5117 98.8594 42.2818 100.238 42.837C101.617 43.3922 103.14 43.6787 104.823 43.6787C106.471 43.6787 107.886 43.4996 109.068 43.1594C110.25 42.8012 111.235 42.4072 111.987 41.9773C112.757 41.5475 113.33 41.1177 113.742 40.7237C114.154 40.3297 114.387 40.079 114.476 39.9894L111.593 36.8374C111.414 37.0165 111.145 37.2314 110.805 37.5179C110.465 37.8045 110.017 38.0552 109.48 38.306C108.942 38.5567 108.298 38.7716 107.527 38.9686C106.757 39.1656 105.88 39.2551 104.859 39.2551C104.178 39.2551 103.48 39.1477 102.764 38.897C102.065 38.6641 101.438 38.3239 100.883 37.894C100.328 37.4463 99.8802 36.9269 99.5399 36.318C99.1996 35.7091 99.0205 35.0107 99.0205 34.2585H114.745V33.5063C114.745 32.0377 114.566 30.605 114.208 29.2081C113.849 27.8111 113.258 26.5396 112.452 25.4292ZM98.9847 30.5154C98.9847 29.9961 99.1101 29.4588 99.3429 28.9394C99.5757 28.4201 99.9339 27.9365 100.382 27.5067C100.829 27.0948 101.385 26.7366 102.065 26.45C102.746 26.1635 103.516 26.0381 104.375 26.0381C105.181 26.0381 105.898 26.1814 106.525 26.45C107.151 26.7187 107.671 27.0769 108.083 27.5067C108.477 27.9365 108.799 28.4022 108.996 28.9394C109.211 29.4588 109.318 29.9961 109.318 30.5154H98.9847Z" fill="white"/>
<path d="M132.259 22.8863C131.865 22.743 131.525 22.5998 131.221 22.4923C130.916 22.367 130.594 22.2774 130.236 22.2058C129.877 22.1341 129.466 22.0625 129.036 22.0267C128.588 21.9909 128.015 21.955 127.334 21.955C126.815 21.955 126.224 22.0267 125.543 22.152C124.845 22.2774 124.147 22.5102 123.412 22.8147C122.678 23.1191 121.962 23.5131 121.227 23.9788C120.511 24.4444 119.848 25.0354 119.257 25.7339C118.541 26.5756 117.932 27.6144 117.466 28.8322C116.983 30.05 116.75 31.4648 116.75 33.0588C116.75 34.7601 117.019 36.2645 117.556 37.5898C118.093 38.8972 118.792 40.0075 119.669 40.9209C120.529 41.8343 121.532 42.5148 122.642 42.9805C123.753 43.4461 124.863 43.6789 126.009 43.6789C126.815 43.6789 127.549 43.5894 128.176 43.4103C128.821 43.2312 129.412 43.0163 129.931 42.7477C130.451 42.479 130.916 42.1925 131.292 41.8701C131.686 41.5477 132.009 41.2433 132.277 40.9567L132.421 42.9805H137.543V13.7168H132.295V22.8863H132.259ZM132.259 33.8647C132.259 34.4557 132.17 35.0646 131.991 35.6914C131.812 36.3182 131.525 36.8913 131.131 37.4286C130.737 37.9659 130.236 38.3957 129.609 38.7181C128.982 39.0584 128.212 39.2195 127.316 39.2195C125.615 39.2195 124.308 38.6285 123.412 37.4644C122.517 36.3003 122.069 34.8318 122.069 33.0767C122.069 32.2349 122.194 31.4111 122.445 30.641C122.696 29.8709 123.054 29.1904 123.502 28.5994C124.003 27.9546 124.612 27.4353 125.293 27.0413C125.973 26.6473 126.851 26.4503 127.89 26.4503C128.946 26.4503 129.806 26.5398 130.468 26.701C131.149 26.8622 131.74 27.1487 132.241 27.5606V33.8647H132.259Z" fill="white"/>
<path d="M149.452 21.0233C150.275 20.0741 151.278 19.304 152.442 18.7489C153.606 18.1758 154.932 17.8892 156.4 17.8892C158.317 17.8892 159.911 18.3011 161.182 19.125C162.454 19.9488 163.564 21.0233 164.531 22.3665L168.525 18.8921C167.934 18.0683 167.235 17.2982 166.465 16.5818C165.695 15.8655 164.8 15.2387 163.797 14.7193C162.794 14.1999 161.684 13.7701 160.448 13.4656C159.23 13.1612 157.869 13 156.4 13C154.126 13 152.048 13.4119 150.15 14.2357C148.27 15.0596 146.64 16.1699 145.279 17.5669C143.918 18.9638 142.861 20.6114 142.109 22.474C141.357 24.3544 140.98 26.3603 140.98 28.4915C140.98 30.6764 141.357 32.7001 142.109 34.5448C142.861 36.3894 143.9 38.0013 145.261 39.3445C146.604 40.7056 148.198 41.7622 150.06 42.5323C151.923 43.2845 153.965 43.6785 156.221 43.6785C157.654 43.6785 159.015 43.4815 160.305 43.1054C161.594 42.7293 162.776 42.2458 163.851 41.6369C164.925 41.0279 165.856 40.3832 166.662 39.6847C167.45 38.9863 168.077 38.2878 168.525 37.6252L164.567 34.2941C164.209 34.6523 163.815 35.0642 163.367 35.5477C162.937 36.0313 162.4 36.4969 161.755 36.9267C161.11 37.3745 160.34 37.7326 159.427 38.0192C158.514 38.3057 157.421 38.449 156.132 38.449C154.717 38.449 153.463 38.1804 152.335 37.661C151.207 37.1416 150.24 36.4253 149.434 35.5119C148.628 34.5985 148.001 33.5419 147.571 32.3061C147.141 31.0883 146.926 29.763 146.926 28.3661C146.926 26.9692 147.141 25.626 147.571 24.3544C148.001 23.0829 148.628 21.9725 149.452 21.0233Z" fill="white"/>
<path d="M259.701 13.7168C257.319 13.7168 255.385 15.5973 255.385 17.9255C255.385 20.2537 257.319 22.1341 259.701 22.1341C262.083 22.1341 263.999 20.2537 263.999 17.9255C263.999 15.5973 262.083 13.7168 259.701 13.7168ZM259.701 21.1491C257.874 21.1491 256.388 19.6985 256.388 17.9255C256.388 16.1525 257.874 14.7018 259.701 14.7018C261.528 14.7018 263.014 16.1525 263.014 17.9255C262.996 19.6985 261.51 21.1491 259.701 21.1491Z" fill="white"/>
<path d="M261.134 18.6234C261.062 18.3189 260.955 18.0682 260.793 17.8891C261.134 17.6205 261.313 17.2444 261.313 16.7967C261.313 16.3848 261.152 16.0266 260.883 15.7937C260.561 15.5072 260.131 15.3818 259.468 15.3818C259.074 15.3818 258.662 15.4177 258.376 15.4714L258.125 15.5251V20.1278H259.289V18.3548H259.468C259.755 18.3727 259.898 18.4264 260.005 18.91C260.149 19.5547 260.238 19.8412 260.31 19.9666L260.399 20.1278H261.671L261.42 19.6801C261.349 19.5368 261.223 18.9995 261.134 18.6234ZM259.504 17.3339H259.271V16.4206C259.325 16.4206 259.397 16.4206 259.486 16.4206C260.131 16.4206 260.131 16.7429 260.131 16.8683C260.149 17.2802 259.701 17.3339 259.504 17.3339Z" fill="white"/>
<path fill-rule="evenodd" clip-rule="evenodd" d="M53.6718 42.6383C55.9887 38.5022 57.3095 33.7327 57.3095 28.6548C57.3095 12.8292 44.4804 0 28.6548 0C12.8292 0 0 12.8292 0 28.6548C0 44.4804 12.8292 57.3095 28.6548 57.3095C33.5225 57.3095 38.1067 56.0958 42.1213 53.9544C40.9598 52.5507 40.2617 50.7494 40.2617 48.7851C40.2617 44.304 43.8944 40.6714 48.3754 40.6714C50.3995 40.6714 52.2505 41.4126 53.6718 42.6383Z" fill="url(#paint0_linear_1986_7106)"/>
<circle cx="48.6828" cy="48.8874" r="5.54608" fill="#3BB7DD"/>
<defs>
<linearGradient id="paint0_linear_1986_7106" x1="28.6548" y1="0" x2="41.801" y2="54.4338" gradientUnits="userSpaceOnUse">
<stop stop-color="#36CEF6"/>
<stop offset="1" stop-color="#389BCE"/>
</linearGradient>
</defs>
</svg>
