<svg width="103" height="52" viewBox="0 0 103 52" fill="none" xmlns="http://www.w3.org/2000/svg">
<g clip-path="url(#clip0_1638_6826)">
<path d="M51.59 1.47143C52.3518 1.47143 53.1124 1.45551 53.8729 1.47143C54.2696 1.48336 54.6783 1.55365 55.0817 1.60405C55.3185 1.63455 55.5565 1.66903 55.792 1.7181C56.0737 1.77645 56.3528 1.85072 56.6331 1.92366C56.658 1.93023 56.6832 1.93554 56.7085 1.93957C56.9995 1.99262 57.2945 2.03373 57.5828 2.10137C57.8023 2.15309 58.014 2.23399 58.2295 2.30826C58.26 2.31754 58.2943 2.31489 58.3248 2.32417L59.0853 2.5483C59.2771 2.604 59.4715 2.65042 59.6606 2.71407C59.8497 2.77773 60.0098 2.84669 60.1897 2.92096C60.3219 2.97135 60.4436 3.02042 60.5719 3.06684C60.8232 3.15702 61.0771 3.23925 61.3245 3.33208C61.5229 3.41032 61.7212 3.50581 61.9077 3.59732C62.0519 3.66628 62.1921 3.7432 62.3349 3.81481L63.0214 4.17819C63.2859 4.31081 63.5504 4.44343 63.807 4.57605C64.0636 4.70867 64.2964 4.8771 64.545 5.02165C64.7937 5.16621 65.0608 5.30678 65.3108 5.46195C65.488 5.57202 65.6494 5.70729 65.8174 5.83063C66.0991 6.03619 66.3848 6.23644 66.6612 6.44864C67.095 6.78284 67.5421 7.10378 67.9494 7.46848C68.5261 7.98304 69.0776 8.52943 69.6252 9.07185C69.9162 9.36228 70.1807 9.6819 70.4505 10.0002C70.7203 10.3185 71.0179 10.6434 71.2785 10.9816C71.5589 11.3449 71.8075 11.7295 72.08 12.1049C72.277 12.382 72.4886 12.6499 72.6725 12.9364C72.8563 13.2228 73.0256 13.5531 73.2015 13.8647C73.3774 14.1764 73.5891 14.5106 73.7729 14.8395C73.8774 15.0278 73.9581 15.2267 74.0507 15.4217C74.1684 15.671 74.2927 15.9177 74.4038 16.171C74.5149 16.4243 74.5903 16.6471 74.6895 16.8831C74.749 17.0158 74.8217 17.1484 74.8865 17.2943C74.9513 17.4401 74.9871 17.5966 75.0453 17.7465C75.1207 17.9441 75.2106 18.1351 75.2807 18.334C75.3389 18.5011 75.3733 18.6775 75.4249 18.8486C75.4936 19.0793 75.5703 19.3087 75.6404 19.5395C75.6867 19.6894 75.7357 19.8392 75.7727 19.9931C75.8283 20.2225 75.8719 20.4559 75.9235 20.6867C75.9909 20.9837 76.0623 21.2808 76.1324 21.5765C76.1324 21.5951 76.147 21.6137 76.1496 21.6322C76.1828 22.0025 76.2376 22.3705 76.3136 22.7343C76.4274 23.1666 76.3586 23.6162 76.4605 24.034C76.5194 24.3523 76.546 24.6758 76.5398 24.9994C76.5623 25.5816 76.5795 26.1652 76.5782 26.7474C76.5782 27.3879 76.6033 28.0364 76.5173 28.6664C76.4631 29.0642 76.4803 29.4714 76.3983 29.8599C76.3427 30.1252 76.3308 30.3904 76.2898 30.645C76.2224 31.0721 76.1258 31.4951 76.0346 31.9195C75.9605 32.2643 75.8812 32.6105 75.7925 32.9526C75.7132 33.263 75.6193 33.5693 75.528 33.881C75.454 34.1276 75.3865 34.377 75.2966 34.617C75.196 34.8822 75.0677 35.1369 74.958 35.3981C74.9037 35.5307 74.8654 35.6634 74.8125 35.796C74.7014 36.0705 74.5863 36.3411 74.4726 36.6143C74.376 36.8477 74.2887 37.0864 74.1803 37.3145C74.0559 37.5797 73.9157 37.8304 73.7835 38.0863C73.6684 38.3051 73.5547 38.524 73.4343 38.7401C73.302 38.9789 73.1698 39.2162 73.027 39.451C72.933 39.6075 72.8233 39.7547 72.7254 39.9085C72.6275 40.0624 72.5402 40.2281 72.441 40.3833C72.2731 40.6485 72.1064 40.9138 71.9226 41.1671C71.7387 41.4204 71.5258 41.675 71.3221 41.9283C71.084 42.2267 70.8512 42.5317 70.6026 42.8222C70.3539 43.1126 70.0855 43.3924 69.8249 43.6762C69.6001 43.9229 69.3858 44.1815 69.1464 44.4136C68.866 44.6788 68.5644 44.9335 68.2722 45.1908C67.8754 45.5448 67.4786 45.9135 67.062 46.2517C66.7049 46.5382 66.3147 46.7822 65.943 47.0474C65.7354 47.1986 65.5396 47.3657 65.328 47.5103C65.1746 47.6137 65.0066 47.6933 64.8453 47.7848C64.5424 47.9572 64.2369 48.1256 63.9366 48.3047C63.6959 48.4492 63.4684 48.6176 63.2224 48.7529C63.0148 48.8683 62.7886 48.9479 62.573 49.0486C62.3574 49.1494 62.1352 49.2675 61.9117 49.3709C61.7794 49.4346 61.6472 49.485 61.5043 49.5433C61.2583 49.6494 61.0123 49.7582 60.7637 49.8603C60.6089 49.9253 60.4502 49.9796 60.2928 50.0393C60.1063 50.1109 59.9212 50.1839 59.7347 50.2542C59.613 50.3006 59.4913 50.3483 59.367 50.3868C59.1699 50.4438 58.9702 50.4876 58.7705 50.5472C58.5708 50.6069 58.3406 50.6799 58.1264 50.7555C58.1079 50.7555 58.0907 50.7674 58.0722 50.7714C57.8261 50.8178 57.5788 50.8536 57.3368 50.9119C57.059 50.9809 56.7866 51.0684 56.5115 51.148C56.4995 51.1521 56.487 51.1547 56.4744 51.156C56.1319 51.1984 55.7893 51.2369 55.4468 51.2886C54.9534 51.3589 54.4627 51.4477 53.9681 51.5074C53.6759 51.5379 53.3822 51.5512 53.0885 51.5472C51.8545 51.5472 50.6205 51.5472 49.3852 51.5247C48.9543 51.5022 48.5248 51.4579 48.0983 51.392C47.847 51.3615 47.597 51.327 47.3497 51.2753C47.0733 51.217 46.8022 51.1427 46.5284 51.0684L46.4715 51.0565C46.1739 51.0048 45.875 50.965 45.5801 50.8974C45.3658 50.8483 45.1595 50.7647 44.9492 50.6931C44.9185 50.6838 44.8871 50.6772 44.8553 50.6732C44.436 50.6374 44.0617 50.4504 43.6649 50.3191C43.4837 50.2568 43.2959 50.2184 43.1147 50.1627C42.9824 50.1215 42.8502 50.0725 42.7179 50.0207C42.4203 49.9027 42.1214 49.7887 41.8278 49.6587C41.5871 49.5526 41.357 49.4213 41.1176 49.3126C40.902 49.2144 40.6718 49.1455 40.4563 49.038C40.1812 48.8988 39.9272 48.729 39.6495 48.5805C39.3717 48.432 39.1098 48.3153 38.8559 48.1601C38.6019 48.0049 38.3189 47.8179 38.0531 47.6455C37.7383 47.4426 37.4209 47.2477 37.1127 47.0342C36.8918 46.8816 36.6815 46.7132 36.4712 46.5448C36.1141 46.261 35.7491 45.9838 35.4131 45.6814C34.8391 45.1722 34.2677 44.6603 33.7215 44.1218C33.3155 43.724 32.9504 43.2784 32.5722 42.85C32.2944 42.5331 32.0114 42.2201 31.7548 41.8859C31.4783 41.5265 31.2257 41.1445 30.9691 40.7732C30.7694 40.4867 30.5591 40.2082 30.3713 39.9138C30.2205 39.6751 30.1068 39.4165 29.9587 39.1698C29.8105 38.9232 29.6664 38.6924 29.5328 38.4471C29.419 38.2388 29.3291 38.016 29.2206 37.8038C29.1122 37.5917 28.9971 37.3967 28.8926 37.1898C28.8305 37.0665 28.7868 36.9352 28.7313 36.8079C28.6255 36.5639 28.517 36.3225 28.4125 36.0785C28.3517 35.9366 28.2948 35.792 28.2379 35.6475C28.1652 35.4605 28.0898 35.2748 28.0197 35.0865C27.9655 34.9393 27.9179 34.7894 27.8676 34.6409C27.7869 34.4035 27.701 34.1687 27.6295 33.9287C27.574 33.7444 27.5436 33.5534 27.4973 33.3677C27.4325 33.1317 27.365 32.8996 27.287 32.6648C27.287 32.6476 27.2671 32.6317 27.2632 32.6131C27.2156 32.3611 27.1732 32.1078 27.1217 31.8572C27.0582 31.5508 26.9828 31.2471 26.9206 30.9395C26.8942 30.8068 26.9021 30.6742 26.8757 30.5416C26.7884 30.1199 26.795 29.6796 26.709 29.2671C26.5767 28.6385 26.7024 28.0072 26.5953 27.3932C26.4948 26.9353 26.472 26.4636 26.5278 25.9981C26.6416 25.3283 26.5476 24.6546 26.6508 23.9995C26.7037 23.6613 26.7077 23.3245 26.7566 22.9903C26.8056 22.6561 26.9034 22.2914 26.9801 21.9426C26.9801 21.9293 26.9801 21.9174 26.9881 21.9054C27.0357 21.5885 27.0701 21.2689 27.1336 20.9545C27.1838 20.7119 27.2724 20.4784 27.3399 20.2397C27.3954 20.0461 27.4404 19.8485 27.4973 19.6549C27.5661 19.4188 27.6441 19.1841 27.7168 18.9493C27.7274 18.9122 27.7274 18.8724 27.7393 18.8366C27.8121 18.6138 27.8874 18.3923 27.9615 18.1735C28.0157 18.0091 28.0647 17.842 28.1255 17.6788C28.1864 17.5157 28.2578 17.3446 28.3318 17.1762C28.4271 16.9455 28.517 16.7121 28.6162 16.4826C28.7154 16.2532 28.8292 16.0238 28.9363 15.7943C29.0434 15.5649 29.1334 15.358 29.2392 15.1432C29.345 14.9283 29.4415 14.7546 29.5447 14.5623C29.6479 14.37 29.747 14.1843 29.8542 13.9987C29.9864 13.7706 30.1218 13.5447 30.2602 13.321C30.4573 13.0027 30.657 12.6831 30.8594 12.3701C30.9705 12.2017 31.1027 12.0465 31.2244 11.8834C31.4321 11.6036 31.6212 11.3118 31.846 11.0412C32.1886 10.6222 32.5483 10.2164 32.9041 9.80656C33.1263 9.54928 33.3393 9.27608 33.5813 9.04267C34.0045 8.60238 34.4529 8.20452 34.8841 7.79472C35.1208 7.57325 35.3444 7.33453 35.5943 7.13163C35.8443 6.92872 36.1234 6.75366 36.3773 6.55871C36.5836 6.40354 36.7741 6.23114 36.9857 6.0773C37.2159 5.90755 37.4552 5.74973 37.692 5.58926C38.0002 5.38238 38.3057 5.17018 38.6178 4.97656C38.8532 4.83201 39.1019 4.71132 39.3479 4.5787C39.6812 4.40497 40.0158 4.23256 40.3518 4.06414C40.7485 3.86388 41.1453 3.65965 41.5421 3.47266C41.7736 3.36656 42.0236 3.2976 42.2603 3.20079C42.5248 3.09204 42.7788 2.96605 43.0406 2.85598C43.1703 2.80434 43.3028 2.76006 43.4374 2.72336C43.7601 2.6292 44.0842 2.54299 44.4056 2.44486C44.6146 2.3812 44.8182 2.30295 45.0246 2.23266C45.0431 2.22603 45.0629 2.22603 45.0814 2.22073C45.4028 2.14248 45.7216 2.05495 46.0456 1.98732C46.3392 1.92499 46.6368 1.88785 46.9318 1.83215C47.2928 1.76584 47.6539 1.69158 48.0137 1.61996C48.0335 1.61996 48.0507 1.61068 48.0705 1.60803C48.4977 1.56294 48.9249 1.48867 49.3535 1.47541C50.0955 1.45419 50.8374 1.47541 51.5781 1.47541L51.59 1.47143ZM63.2132 32.4328C63.1999 32.4261 63.1774 32.4235 63.1695 32.4102C63.028 32.1967 62.905 31.9726 62.7436 31.7683C62.4841 31.4073 62.2431 31.0333 62.0215 30.6477C61.7689 30.2286 61.4792 29.8334 61.2094 29.4263C61.1512 29.3401 61.0626 29.2433 61.0679 29.161C61.0801 29.0286 61.1317 28.9029 61.216 28.8003C61.5506 28.4025 61.9011 28.0285 62.2476 27.6465C62.487 27.3813 62.733 27.1306 62.9671 26.8641C63.0108 26.815 63.0121 26.7314 63.0333 26.6585C62.978 26.6348 62.9197 26.6187 62.86 26.6108C62.2084 26.6108 61.5559 26.6108 60.9025 26.6108C60.8276 26.603 60.7522 26.6217 60.6896 26.6638C60.5401 26.8256 60.4132 27.0073 60.2717 27.1757C60.0336 27.4569 59.7902 27.7314 59.5508 28.0112C59.3961 28.1903 59.2453 28.372 59.0813 28.5669C59.0747 28.4993 59.0615 28.4343 59.0615 28.3574C59.0615 27.8441 59.0615 27.3309 59.0615 26.819C59.0615 26.6466 59.0072 26.6015 58.8406 26.6041C58.3115 26.6147 57.7825 26.6134 57.2535 26.6041C57.0974 26.6041 57.0418 26.6466 57.0418 26.8084C57.0471 28.6863 57.0471 30.5646 57.0418 32.4434C57.0418 32.576 57.0723 32.6264 57.2111 32.6251C57.7746 32.6184 58.3367 32.6251 58.9001 32.6251C59.0324 32.6251 59.0654 32.58 59.0628 32.4566C59.0562 32.1039 59.0628 31.7511 59.0628 31.3957C59.0592 31.3407 59.0716 31.2859 59.0985 31.2379C59.2075 31.0862 59.324 30.9401 59.4477 30.8002C59.5112 30.7299 59.5799 30.6676 59.6619 30.8148C59.822 31.1105 59.9952 31.3997 60.1711 31.6874C60.347 31.9752 60.5084 32.2299 60.6909 32.4911C60.7163 32.5257 60.7485 32.5545 60.7857 32.5757C60.8228 32.597 60.864 32.6102 60.9065 32.6144C62.312 32.6224 63.7184 32.6224 65.1256 32.6144C65.1565 32.6109 65.1861 32.6003 65.2122 32.5835C65.2383 32.5668 65.2603 32.5442 65.2764 32.5176C65.3637 32.3452 65.4272 32.1596 65.5145 31.9872C65.5423 31.9328 65.6124 31.8612 65.664 31.8612C66.3028 31.8532 66.9416 31.8545 67.5817 31.8612C67.6254 31.8612 67.6955 31.8837 67.714 31.9142C67.7748 32.0588 67.8185 32.2086 67.8674 32.3558C67.9164 32.503 67.9534 32.6211 68.132 32.6211H69.973C70.0224 32.6174 70.0714 32.6103 70.1198 32.5999C70.1206 32.5223 70.1126 32.4449 70.096 32.3691C70.0286 32.1861 69.9466 32.0097 69.8738 31.8293C69.817 31.6861 69.768 31.5389 69.7085 31.3943C69.6014 31.1291 69.4863 30.8639 69.3779 30.5986C69.317 30.4488 69.2668 30.2936 69.2019 30.1451C69.1014 29.9156 68.985 29.6928 68.8911 29.4608C68.7853 29.1955 68.7033 28.9183 68.6002 28.6518C68.497 28.3852 68.3713 28.1027 68.2589 27.8282C68.202 27.6956 68.1505 27.5471 68.0949 27.4091C68.0261 27.2407 67.9627 27.0723 67.882 26.9078C67.8264 26.7885 67.8026 26.6108 67.6386 26.6081C67.0183 26.5962 66.398 26.6081 65.7777 26.6081C65.7531 26.6065 65.7285 26.6104 65.7056 26.6196C65.6827 26.6288 65.6622 26.643 65.6454 26.6612C65.5879 26.7719 65.5376 26.8862 65.4947 27.0033C65.4391 27.1452 65.3928 27.2911 65.3333 27.4317C65.2738 27.5723 65.1838 27.7433 65.1151 27.9025C65.0582 28.0351 65.0172 28.1823 64.959 28.3176C64.9008 28.4529 64.8148 28.5961 64.7553 28.7406C64.6574 28.9767 64.5781 29.2207 64.4789 29.4568C64.3797 29.6928 64.2501 29.9541 64.1363 30.2034C64.09 30.3055 64.0424 30.4063 64.0041 30.5098C63.9498 30.653 63.9128 30.8015 63.852 30.9408C63.7435 31.1888 63.6166 31.4275 63.5107 31.6742C63.4049 31.9208 63.311 32.1768 63.2132 32.4328ZM52.2355 13.8156H52.2817C52.3333 13.9483 52.4299 14.0888 52.4272 14.2241C52.418 14.7466 52.5185 15.2692 52.3466 15.7943C52.2802 16.0629 52.1918 16.3255 52.082 16.5794C51.9088 16.9176 51.7408 17.2558 51.5622 17.59C51.4472 17.8062 51.3215 18.0157 51.1946 18.2252C51.1178 18.3579 51.0239 18.4706 50.9485 18.5992C50.8494 18.7677 50.77 18.9467 50.6655 19.1098C50.561 19.2729 50.4367 19.4122 50.3243 19.5647C50.1828 19.7583 50.0439 19.9546 49.9037 20.1495L49.8481 20.131C49.8402 20.0726 49.8283 20.0143 49.823 19.9546C49.7873 19.5567 49.8534 19.1523 49.7436 18.7411C49.6497 18.3857 49.7436 17.9918 49.6114 17.6192C49.5254 17.3738 49.536 17.0966 49.4553 16.8486C49.3628 16.5882 49.2473 16.3365 49.1101 16.0967C48.9568 15.7761 48.7725 15.4714 48.5599 15.1869C48.3364 14.9307 48.0755 14.7099 47.7862 14.5318C47.5129 14.364 47.2202 14.2304 46.9146 14.1339C46.6061 14.0215 46.2857 13.9454 45.9597 13.9072C45.5127 13.8773 45.0642 13.8773 44.6172 13.9072C44.2927 13.9289 43.9701 13.9732 43.6517 14.0398C43.3567 14.0968 43.2906 14.3421 43.5009 14.5623C43.8223 14.8912 44.0435 15.3053 44.1384 15.7559C44.1774 15.921 44.2278 16.0831 44.2892 16.2413C44.3527 16.4203 44.4215 16.594 44.4968 16.7717C44.5722 17.0195 44.6714 17.2594 44.7931 17.4879C44.9981 17.8024 45.2333 18.096 45.4954 18.3645C45.9125 18.8189 46.4826 19.1024 47.0958 19.1602C47.1437 19.1735 47.1906 19.1903 47.236 19.2106C47.2689 19.2211 47.3037 19.2238 47.3378 19.2186C47.4223 19.202 47.5057 19.1808 47.5878 19.1549C47.6456 19.141 47.7013 19.1191 47.7531 19.0899C47.945 18.9638 48.0933 18.7813 48.1777 18.5674C48.2442 18.4113 48.2586 18.2377 48.2187 18.0727C48.175 17.8844 48.056 17.7133 48.0216 17.525C47.9568 17.1722 47.732 16.911 47.5362 16.6444C47.3003 16.3403 47.0345 16.0608 46.7426 15.8102C46.5376 15.6568 46.3229 15.5169 46.0998 15.3912C46.0483 15.3567 46.0245 15.2824 45.9874 15.2254L46.0311 15.183C46.0863 15.1841 46.141 15.193 46.1938 15.2095C46.3133 15.2686 46.4286 15.336 46.539 15.4111C46.7704 15.5689 47.0045 15.724 47.2214 15.9017C47.3457 16.0134 47.4575 16.1384 47.5547 16.2744C47.7451 16.4969 47.9217 16.7307 48.0838 16.9746C48.2186 17.2138 48.3379 17.4614 48.4409 17.716C48.5018 17.8507 48.5535 17.9893 48.5956 18.1311C48.6498 18.3207 48.6869 18.5157 48.7371 18.7066C48.8072 18.9719 48.9276 19.2371 48.9461 19.5024C48.9951 20.2265 49.167 20.9426 49.0956 21.6747C49.089 21.7503 49.0956 21.8285 49.0956 21.9054C49.1106 22.0198 49.1061 22.136 49.0823 22.2489C48.9355 22.6322 48.9924 23.0327 48.9739 23.4252C48.9739 23.5247 49.0612 23.6308 49.1181 23.7303C49.1181 23.7369 49.2239 23.713 49.2305 23.6905C49.2834 23.4836 49.3231 23.2754 49.3707 23.0672C49.4183 22.859 49.4619 22.6521 49.5188 22.4465C49.5579 22.3174 49.6047 22.1907 49.659 22.0672C49.7198 21.9227 49.7913 21.7847 49.8521 21.6402C49.9129 21.4956 49.9513 21.3299 50.0201 21.184C50.1193 20.9718 50.2357 20.7662 50.3468 20.5593C50.5174 20.2371 50.684 19.9122 50.8613 19.5939C50.9749 19.368 51.1076 19.1524 51.258 18.9493C51.4589 18.7077 51.6768 18.4808 51.9101 18.2703C52.2685 17.9375 52.6283 17.6072 53.074 17.3805C53.443 17.1961 53.7975 16.976 54.1784 16.8208C54.5209 16.6833 54.8893 16.6231 55.2576 16.6444C55.329 16.6532 55.3997 16.667 55.4692 16.6855C55.4203 16.728 55.4071 16.7492 55.3939 16.7492C54.8939 16.7492 54.4535 16.9574 53.9985 17.1272C53.6773 17.2679 53.3758 17.4503 53.1018 17.6696C52.869 17.8327 52.8915 18.2438 53.1018 18.4321C53.3795 18.6748 53.7181 18.6974 54.0369 18.7451C54.4574 18.8008 54.8701 18.6536 55.2841 18.5555C55.6981 18.4573 55.9851 18.1828 56.3078 17.9613C56.6305 17.7399 56.903 17.4481 57.2151 17.212C57.3368 17.1205 57.51 17.102 57.6542 17.0383C57.7302 17.0111 57.7946 16.9587 57.8367 16.8898C57.8464 16.8522 57.8467 16.8127 57.8375 16.775C57.8282 16.7373 57.8098 16.7024 57.7838 16.6736C57.5008 16.4839 57.2111 16.3049 56.9122 16.1431C56.7721 16.0811 56.6264 16.0327 56.4771 15.9986C56.2679 15.9124 56.0515 15.8454 55.8303 15.7983C55.5186 15.7693 55.2054 15.7609 54.8926 15.7731C54.7527 15.7757 54.6136 15.7957 54.4786 15.8328C54.2829 15.8845 54.0937 15.9574 53.9019 16.0211C53.753 16.0576 53.6074 16.1068 53.4668 16.1683C53.1414 16.342 52.828 16.5357 52.5106 16.72L52.4696 16.6895C52.5105 16.6214 52.5476 16.551 52.5807 16.4786C52.7566 16.0171 53.1719 15.8036 53.5435 15.5503C53.8411 15.3474 54.1837 15.2108 54.3688 14.862C54.4231 14.7586 54.5011 14.6485 54.4231 14.5822C54.3764 14.5518 54.323 14.5335 54.2675 14.5291C54.2121 14.5247 54.1564 14.5343 54.1056 14.557C53.9006 14.7095 53.816 14.6127 53.7089 14.4456C53.6839 14.4082 53.6503 14.3773 53.6109 14.3556C53.5716 14.3339 53.5276 14.322 53.4827 14.3209C53.351 14.3768 53.2274 14.4499 53.115 14.5384C53.1088 14.1902 53.018 13.8488 52.8505 13.5438C52.7153 13.2517 52.5143 12.9952 52.2632 12.7945C52.0378 12.614 51.7956 12.4559 51.5398 12.3224C51.4067 12.2805 51.2641 12.2805 51.1311 12.3224C51.1033 12.3224 51.1059 12.4934 51.098 12.5876C51.0729 12.8926 51.098 13.2122 51.012 13.4987C50.9175 13.8242 50.9038 14.168 50.9724 14.5C51.0438 14.8686 51.3057 15.1631 51.594 15.4004C51.9074 15.6657 52.0384 15.5331 52.2355 15.305C52.3677 15.1538 52.3135 14.9893 52.3135 14.8328C52.3135 14.6339 52.3545 14.435 52.2434 14.236C52.1905 14.1193 52.2394 13.9536 52.2394 13.8156H52.2355ZM37.6735 30.1278H37.8745C38.84 30.1278 39.8055 30.1278 40.771 30.1278C40.9443 30.1278 41.0104 30.0695 41.0078 29.8931C40.9985 29.4051 41.0078 28.9183 41.0078 28.4343C41.0078 28.1863 40.9324 28.116 40.689 28.1147C39.7487 28.1147 38.8096 28.1147 37.8692 28.1147C37.7198 28.1147 37.6655 28.0722 37.6735 27.9197C37.6854 27.6956 37.6735 27.4715 37.6735 27.246C37.6735 26.9914 37.6735 26.9901 37.9221 26.9901H40.857C41.148 26.9901 41.1678 26.9702 41.1678 26.6691C41.1678 26.1758 41.1678 25.6811 41.1678 25.1878C41.1678 24.9146 41.144 24.8894 40.8729 24.8894H35.3325C35.0587 24.8894 35.0507 24.8894 35.0507 25.1679V29.3043C35.0507 31.4324 35.0507 33.5609 35.0507 35.6899C35.0507 35.9432 35.064 35.9551 35.3047 35.9551H37.3389C37.6034 35.9551 37.6748 35.8756 37.6748 35.613C37.6748 33.8757 37.6748 32.1379 37.6748 30.3997L37.6735 30.1278ZM47.8378 32.5879C47.7055 32.3572 47.5984 32.1662 47.4873 31.9805C47.3352 31.7259 47.1778 31.4752 47.023 31.2219C46.9312 31.0853 46.8477 30.9431 46.7731 30.7962C46.7003 30.6358 46.8683 30.584 46.949 30.5111C47.3455 30.151 47.5834 29.6478 47.6103 29.112C47.638 28.7871 47.6936 28.4489 47.5164 28.1253C47.4251 27.9622 47.4 27.7579 47.2968 27.6067C47.108 27.3294 46.8523 27.1045 46.5535 26.9529C46.1986 26.7579 45.8043 26.6459 45.4002 26.6254C44.3976 26.5909 43.3938 26.6108 42.3899 26.6094C42.1386 26.6094 42.1333 26.6094 42.1254 26.8747C42.1254 28.7207 42.1254 30.5668 42.1254 32.4129C42.1254 32.5786 42.1756 32.637 42.3436 32.6357C42.8872 32.6264 43.4308 32.6357 43.9744 32.6357C44.1966 32.6357 44.2389 32.6012 44.2389 32.381C44.2389 32.0283 44.2389 31.6755 44.2389 31.3201C44.2389 31.2591 44.2773 31.149 44.3064 31.1464C44.4694 31.1158 44.6367 31.1158 44.7997 31.1464C44.883 31.1715 44.932 31.3241 44.9875 31.4262C45.0656 31.584 45.1317 31.7471 45.1991 31.9076C45.2666 32.0681 45.3314 32.194 45.3724 32.3413C45.3873 32.4268 45.4336 32.5036 45.5021 32.5566C45.5706 32.6096 45.6565 32.635 45.7427 32.6277C46.36 32.6277 46.9737 32.6277 47.5838 32.6277C47.6708 32.6182 47.7569 32.6027 47.8417 32.5813L47.8378 32.5879ZM56.567 27.2487C56.2774 27.116 55.9917 26.9834 55.6981 26.8641C55.5215 26.798 55.3396 26.747 55.1545 26.7116C54.7907 26.6373 54.427 26.5604 54.0593 26.5126C53.7964 26.5019 53.5333 26.5282 53.2777 26.5909C52.9724 26.6345 52.6747 26.7201 52.3928 26.8455C52.0646 27.0056 51.7841 27.2494 51.5794 27.5524C51.3729 27.8578 51.2793 28.2261 51.3149 28.5934C51.3308 28.9674 51.4141 29.3029 51.6932 29.5708C51.9723 29.8387 52.2222 30.0854 52.619 30.1358C52.768 30.1674 52.914 30.2118 53.0555 30.2684C53.3055 30.3467 53.5567 30.4223 53.8067 30.5018C53.9559 30.5333 54.1004 30.5842 54.2366 30.653C54.2974 30.6928 54.3146 30.8347 54.3093 30.9289C54.3014 30.9627 54.2851 30.9941 54.262 31.02C54.2389 31.0459 54.2097 31.0657 54.1771 31.0774C53.9205 31.0946 53.6626 31.1424 53.4113 31.0084C53.2459 30.9391 53.0752 30.8837 52.9007 30.8427C52.758 30.8076 52.6193 30.7578 52.4867 30.6941C52.2553 30.5615 52.0437 30.3851 51.8135 30.2445C51.7796 30.2332 51.7434 30.2307 51.7083 30.2372C51.6731 30.2436 51.6402 30.259 51.6125 30.2817C51.5054 30.4607 51.422 30.6543 51.3308 30.8413C51.2263 31.0562 51.1364 31.2776 51.0147 31.4819C50.9062 31.6636 50.9221 31.7789 51.1139 31.8797C51.1456 31.897 51.1708 31.9275 51.2025 31.9447C51.4578 32.0773 51.7051 32.2338 51.9696 32.3505C52.1612 32.4244 52.3591 32.4808 52.5608 32.519C52.8836 32.6123 53.2123 32.6832 53.5448 32.7312C54.1059 32.7865 54.6722 32.7131 55.2008 32.5163C55.448 32.4298 55.6778 32.2995 55.8793 32.1317C56.2641 31.8002 56.5049 31.4089 56.4493 30.8745C56.4334 30.7233 56.4652 30.5642 56.4414 30.4143C56.4294 30.2282 56.3766 30.047 56.2866 29.8838C55.9656 29.4229 55.4845 29.099 54.9376 28.9754C54.7484 28.9316 54.5606 28.8839 54.3741 28.8268C54.148 28.7579 53.9205 28.6876 53.6996 28.5987C53.5858 28.5536 53.4351 28.4966 53.4576 28.3335C53.4596 28.2996 53.4693 28.2665 53.4858 28.2368C53.5022 28.2071 53.5251 28.1814 53.5528 28.1617C53.5804 28.142 53.6121 28.1287 53.6455 28.1229C53.6789 28.1171 53.7132 28.1188 53.7459 28.1279C53.9377 28.1584 54.1255 28.2088 54.3146 28.2606C54.5044 28.2982 54.691 28.3505 54.8727 28.417C55.1743 28.5497 55.464 28.7008 55.7906 28.86L56.567 27.2487ZM68.5764 34.8982C68.4184 34.8321 68.2568 34.7755 68.0923 34.7284C67.8026 34.6647 67.509 34.6236 67.218 34.5746C67.1929 34.5746 67.1664 34.5746 67.1413 34.564C66.8279 34.4923 66.5144 34.4088 66.1983 34.3518C65.9668 34.3093 65.7327 34.3053 65.4973 34.2563C64.9785 34.1674 64.4546 34.1125 63.9287 34.0918C63.3586 34.0481 62.7859 34.0335 62.2159 33.9897C61.4845 33.9327 60.7491 33.9778 60.0151 33.8704C59.519 33.8188 59.0194 33.8104 58.5218 33.8452C57.231 33.8863 55.9388 33.755 54.6479 33.9433C53.9972 34.0375 53.3253 33.9274 52.664 34.064C52.2407 34.1515 51.7963 34.0839 51.3572 34.182C50.8573 34.2961 50.3322 34.2908 49.8177 34.3438C49.4209 34.3849 49.0241 34.4353 48.6274 34.4764C48.6152 34.4803 48.6029 34.4834 48.5903 34.4857C48.2015 34.556 47.8126 34.6316 47.4225 34.6952C47.0693 34.7536 46.7149 34.8 46.3644 34.8517C46.3518 34.854 46.3395 34.8572 46.3273 34.861C46.0337 34.9313 45.7414 35.0096 45.4452 35.0679C45.1489 35.1263 44.8116 35.1767 44.4942 35.2297C44.4758 35.2342 44.4576 35.24 44.44 35.2469C44.1926 35.3146 43.9466 35.3928 43.6967 35.4485C43.4229 35.5082 43.1438 35.544 42.87 35.5997C42.6849 35.6386 42.5023 35.685 42.3225 35.739C42.1164 35.8211 41.9047 35.888 41.6889 35.9392C41.3844 35.9915 41.0849 36.0696 40.7935 36.1726C40.4139 36.2893 40.0224 36.3676 39.6376 36.4631C39.6131 36.4688 39.5892 36.4768 39.5661 36.4869C39.3823 36.5532 39.2011 36.6196 39.0159 36.6859C38.8929 36.7296 38.7673 36.7641 38.6429 36.8012C38.471 36.853 38.3017 36.9073 38.1298 36.9538C37.9578 37.0002 37.7542 37.0347 37.573 37.0943C37.3996 37.1555 37.2296 37.2259 37.0637 37.3052C36.8799 37.3874 36.7053 37.4869 36.5188 37.5572C36.4038 37.5996 36.3866 37.6699 36.4514 37.7375C36.517 37.7819 36.5962 37.8017 36.6749 37.7932C36.7534 37.7798 36.8302 37.7575 36.9037 37.7269C36.9831 37.707 37.0664 37.6978 37.1444 37.6739C37.3547 37.6089 37.5597 37.5307 37.7714 37.4736C37.983 37.4166 38.221 37.3742 38.4432 37.3185C38.6072 37.2773 38.7673 37.2216 38.93 37.1739C39.1548 37.1063 39.377 37.0294 39.6058 36.975C39.8346 36.9206 40.0939 36.8808 40.3372 36.8344H40.3557C40.5925 36.7601 40.8266 36.6713 41.0686 36.6143C41.3424 36.5493 41.6215 36.5161 41.8979 36.4631C42.0804 36.4286 42.2616 36.3848 42.4428 36.345L42.4984 36.3318C42.7893 36.2562 43.0777 36.17 43.3713 36.1103C43.6649 36.0506 43.989 36.0095 44.2971 35.9618C44.3096 35.9597 44.322 35.9571 44.3342 35.9538C44.6357 35.8835 44.9333 35.7986 45.2375 35.7456C45.6171 35.678 46.002 35.6368 46.3829 35.5825C46.3961 35.5825 46.408 35.5825 46.4212 35.5745C46.7612 35.5029 47.0984 35.414 47.441 35.3663C47.9012 35.3013 48.3668 35.2695 48.8297 35.2217C48.8485 35.2186 48.8671 35.2142 48.8853 35.2085C49.2926 35.1329 49.6987 35.0467 50.1087 34.987C50.4618 34.9353 50.815 34.9777 51.1774 34.8809C51.5874 34.7695 52.0318 34.8557 52.4682 34.7616C52.9444 34.6581 53.447 34.7112 53.9429 34.6369C54.5804 34.5427 55.2338 34.5799 55.8819 34.5122C56.6598 34.4508 57.4405 34.4344 58.2203 34.4632C60.2373 34.4897 62.2556 34.3703 64.2686 34.5759C64.7487 34.625 65.2288 34.6608 65.7089 34.7019C66.3332 34.7549 66.9575 34.8066 67.5804 34.8624C67.6467 34.8749 67.7114 34.8944 67.7735 34.9207C68.0371 34.9992 68.3191 34.989 68.5764 34.8915V34.8982ZM48.3404 29.6146V32.3413C48.3404 32.6065 48.3404 32.6065 48.6181 32.6065C49.1233 32.6065 49.6286 32.6065 50.1338 32.6065C50.4327 32.6065 50.4486 32.5906 50.4486 32.2909C50.4486 30.5226 50.4486 28.7543 50.4486 26.9861C50.4486 26.941 50.4486 26.8959 50.4486 26.8535C50.4327 26.685 50.364 26.5882 50.1695 26.5882C49.6405 26.5988 49.1207 26.5882 48.5956 26.5882C48.3456 26.5882 48.3417 26.5882 48.3417 26.8535C48.3408 27.7783 48.3404 28.6986 48.3404 29.6146Z" fill="#051C40"/>
<path d="M66.6771 28.9475C66.7749 29.1862 66.8847 29.4209 66.9667 29.6663C67.0355 29.8718 67.0712 30.0893 67.1281 30.3227H66.103C66.2842 29.8347 66.4218 29.3612 66.6321 28.9117L66.6771 28.9475Z" fill="#051C40"/>
<path d="M44.2402 28.856C44.2402 28.2407 44.2402 28.2407 44.846 28.2407C44.9227 28.2407 44.9994 28.2407 45.0761 28.2407C45.4372 28.2579 45.6052 28.4422 45.6197 28.8003C45.6263 29.0324 45.6263 29.2565 45.3975 29.3918C45.3319 29.4366 45.2567 29.4652 45.178 29.4753C44.9227 29.486 44.6675 29.4753 44.4135 29.482C44.2905 29.482 44.2376 29.4356 44.2389 29.3135C44.2402 29.1584 44.2402 29.0098 44.2402 28.856Z" fill="#051C40"/>
</g>
<defs>
<clipPath id="clip0_1638_6826">
<rect width="102.19" height="51.0948" fill="white" transform="translate(0.189453 0.452881)"/>
</clipPath>
</defs>
</svg>
