<svg width="95" height="49" viewBox="0 0 95 49" fill="none" xmlns="http://www.w3.org/2000/svg">
<g clip-path="url(#clip0_3168_7730)">
<path d="M53.7735 26.0606C53.795 25.9336 53.8041 25.8048 53.8006 25.6761V24.2464C53.8026 24.1765 53.7867 24.1072 53.7544 24.0452C53.7222 23.9831 53.6746 23.9303 53.6162 23.8916L54.2344 23.6777V25.6761C54.231 25.8048 54.2401 25.9336 54.2616 26.0606H53.7735Z" fill="#091D3F"/>
<path d="M55.5381 26.0592L56.5251 24.0067H55.8147C55.7309 24.0024 55.6471 24.0144 55.5679 24.0419V23.7305H57.0918L56.0235 26.0592H55.5381Z" fill="#091D3F"/>
<path d="M58.5293 26.1142C58.3543 26.1186 58.1805 26.0853 58.0195 26.0167V25.8191C58.1765 25.8831 58.3473 25.9064 58.5157 25.8867C58.6505 25.8739 58.7755 25.8112 58.8663 25.711C58.9571 25.6108 59.0072 25.4803 59.0065 25.3452C59.0119 25.2739 59.0014 25.2023 58.9756 25.1355C58.9499 25.0688 58.9096 25.0086 58.8577 24.9594C58.8058 24.9101 58.7435 24.873 58.6755 24.8508C58.6074 24.8285 58.5353 24.8217 58.4642 24.8307C58.3315 24.8298 58.1998 24.8547 58.0765 24.9038L58.1578 23.7422H59.3835V24.0482C59.303 24.027 59.2199 24.0169 59.1367 24.0184H58.5429L58.5103 24.606C58.6045 24.5917 58.6998 24.5863 58.795 24.5897C58.8863 24.5889 58.9767 24.6066 59.0608 24.6419C59.1449 24.6772 59.2209 24.7293 59.2841 24.795C59.3473 24.8607 59.3964 24.9385 59.4284 25.0238C59.4604 25.1091 59.4747 25.2001 59.4702 25.291C59.4702 25.7568 59.1123 26.125 58.5293 26.125V26.1142Z" fill="#091D3F"/>
<path d="M62.1949 24.6406C62.1705 24.0178 61.8505 23.6388 61.2675 23.6902C61.1639 23.6995 61.0632 23.7297 60.9716 23.7789C60.88 23.8281 60.7993 23.8954 60.7344 23.9766C60.6695 24.0579 60.6218 24.1514 60.5942 24.2516C60.5665 24.3517 60.5594 24.4564 60.5734 24.5594C60.5732 24.6561 60.595 24.7516 60.6371 24.8387C60.6792 24.9257 60.7405 25.0021 60.8165 25.0621C60.8925 25.1221 60.9811 25.164 61.0757 25.1848C61.1702 25.2056 61.2683 25.2047 61.3625 25.1822C61.4386 25.1765 61.5128 25.1554 61.5804 25.12C61.648 25.0846 61.7077 25.0357 61.7556 24.9764C61.7681 25.1068 61.751 25.2383 61.7056 25.3612C61.6602 25.4841 61.5877 25.5952 61.4934 25.6863C61.3991 25.7774 61.2854 25.846 61.1609 25.8872C61.0364 25.9284 60.9041 25.941 60.774 25.9241V26.1137C61.5631 26.2139 62.2383 25.7427 62.1976 24.6569L62.1949 24.6406ZM61.3489 24.9412C61.1021 24.9412 61.0208 24.7219 61.0208 24.4213C61.0208 24.2588 61.0506 23.8797 61.3516 23.8797C61.6526 23.8797 61.6797 24.2372 61.6797 24.3996C61.6797 24.5621 61.6797 24.9412 61.3489 24.9412Z" fill="#091D3F"/>
<path d="M47.9622 27.372H43.244L37.6501 8.45814C37.5731 8.22652 37.5186 7.98804 37.4874 7.74599C37.4864 7.6968 37.4958 7.64796 37.5151 7.60266C37.5343 7.55737 37.5629 7.51664 37.599 7.48315C37.6351 7.44967 37.6779 7.42417 37.7245 7.40834C37.7712 7.3925 37.8207 7.38669 37.8697 7.39127C37.9479 7.38679 38.0254 7.40825 38.0902 7.45233C38.1549 7.49641 38.2032 7.56062 38.2276 7.63497L44.2311 25.9504C50.6466 20.7758 54.0741 14.3692 53.4721 6.45438C54.3982 6.24642 55.292 5.9149 56.1294 5.46875C57.6371 13.8981 54.8143 21.618 47.9622 27.3666V27.372Z" fill="#091D3F"/>
<path d="M31.2646 26.0587C31.2862 25.9326 31.2952 25.8048 31.2918 25.6769V24.0523C31.2963 23.9423 31.2872 23.8323 31.2646 23.7246H32.5526V24.0252C32.4634 24.0071 32.3726 23.998 32.2815 23.9981H31.7717V24.7102H32.154C32.2368 24.7111 32.3195 24.7039 32.4008 24.6886V25.0027C32.3194 24.988 32.2367 24.9817 32.154 24.9837H31.7717V25.7771H32.3737C32.4573 25.7766 32.5405 25.7638 32.6204 25.7392V26.0506L31.2646 26.0587Z" fill="#091D3F"/>
<path d="M34.1148 26.114C33.8998 26.1197 33.6887 26.056 33.5128 25.9325V25.7024C33.6873 25.8302 33.9017 25.8917 34.1175 25.8757C34.2154 25.8783 34.3106 25.8442 34.3845 25.78C34.4583 25.7158 34.5053 25.6262 34.5161 25.5291C34.5161 25.3206 34.3941 25.2123 34.1148 25.0742C33.6782 24.8738 33.5074 24.7113 33.5128 24.362C33.5152 24.2682 33.5364 24.1757 33.5752 24.0901C33.6139 24.0045 33.6694 23.9276 33.7384 23.8637C33.8074 23.7999 33.8884 23.7505 33.9768 23.7184C34.0652 23.6863 34.1592 23.6722 34.2531 23.677C34.4409 23.6682 34.6278 23.7083 34.7954 23.7934V24.0398C34.6602 23.9505 34.5019 23.9025 34.3399 23.9017C34.0985 23.9017 33.925 24.0263 33.906 24.2104C33.9023 24.2574 33.9091 24.3046 33.926 24.3487C33.9429 24.3927 33.9694 24.4324 34.0036 24.4649C34.1054 24.5469 34.2187 24.6135 34.3399 24.6626C34.771 24.8521 34.9445 25.0471 34.9445 25.4018C34.9445 25.7565 34.6978 26.114 34.1311 26.114H34.1148Z" fill="#091D3F"/>
<path d="M37.1299 24.0349H36.7476V25.6786C36.7441 25.8064 36.7532 25.9343 36.7747 26.0604H36.2541C36.2756 25.9343 36.2847 25.8064 36.2812 25.6786V24.0349H35.8962C35.813 24.0307 35.7297 24.0398 35.6494 24.062V23.7344H37.3767V24.062C37.2965 24.0395 37.2131 24.0304 37.1299 24.0349Z" fill="#091D3F"/>
<path d="M39.0762 26.0604H38.8051C38.7492 26.0567 38.6932 26.0631 38.6396 26.0794V25.8086C38.6937 25.8222 38.7493 25.8286 38.8051 25.8275H39.0762C39.1318 25.8266 39.1872 25.8202 39.2416 25.8086V26.0956C39.1883 26.0784 39.1322 26.0711 39.0762 26.074V26.0604Z" fill="#091D3F"/>
<path d="M38.9956 25.3473H38.3096C38.3292 25.305 38.3385 25.2586 38.3367 25.2119V23.858C38.3385 23.8114 38.3292 23.765 38.3096 23.7227H38.9115C39.4539 23.7227 39.7901 23.9122 39.7901 24.489C39.7979 24.5977 39.7832 24.7069 39.7468 24.8097C39.7103 24.9124 39.653 25.0066 39.5784 25.0862C39.5038 25.1658 39.4135 25.2291 39.3132 25.2722C39.2129 25.3153 39.1048 25.3371 38.9956 25.3365V25.3473ZM38.9414 23.942H38.7217V25.1334H38.8844C39.1881 25.1334 39.3779 24.9574 39.3779 24.4944C39.3779 24.118 39.1881 23.9528 38.9414 23.9528V23.942Z" fill="#091D3F"/>
<path d="M57.6647 5.96738V7.06132H57.4179V5.96738H57.0898V5.74805H57.9955V5.96738H57.6647Z" fill="#091D3F"/>
<path d="M59.1181 7.06132V6.02153H59.091L58.8171 7.06132H58.6517L58.3778 6.02153V7.06132H58.1582V5.74805H58.489L58.7358 6.67682L58.9825 5.74805H59.3106V7.06132H59.1181Z" fill="#091D3F"/>
<path d="M56.1566 0C53.6349 1.97126 49.7166 2.76464 45.012 0.985632C43.4787 0.375564 41.8491 0.041854 40.199 0C36.674 0 34.8545 1.99834 34.8545 4.105C34.8545 5.82985 36.034 7.00774 37.5661 7.00774C37.9159 7.00731 38.2616 6.93255 38.5802 6.78841L44.9117 24.1967C45.4052 23.8691 47.5474 21.7354 48.2063 20.7768C48.0071 20.7332 47.8222 20.6401 47.6686 20.5061C47.5151 20.3722 47.3978 20.2017 47.3277 20.0105C47.3277 20.0105 40.6085 5.28288 40.2234 4.39473C39.8085 3.43347 39.4642 2.77006 38.911 2.46408C39.5726 2.23121 40.6627 2.27454 41.5765 2.6455C42.4496 2.99751 43.9111 3.93441 45.7442 4.74403C47.6857 5.59969 49.0767 5.9869 50.625 6.06272C53.2227 6.19269 56.0888 5.10146 57.5856 3.69612L56.1566 0ZM37.4874 5.47513C37.287 5.4746 37.0912 5.41475 36.9248 5.30315C36.7583 5.19154 36.6288 5.03319 36.5524 4.8481C36.4761 4.663 36.4564 4.45947 36.4958 4.2632C36.5353 4.06693 36.6321 3.88674 36.774 3.74538C36.9159 3.60402 37.0966 3.50783 37.2933 3.46898C37.4899 3.43012 37.6937 3.45033 37.8789 3.52706C38.064 3.60379 38.2222 3.73359 38.3335 3.90007C38.4449 4.06655 38.5043 4.26224 38.5043 4.46242C38.5008 4.72992 38.3928 4.98547 38.2034 5.17464C38.0139 5.3638 37.758 5.47163 37.4901 5.47513H37.4874Z" fill="#091D3F"/>
<path d="M47.9622 27.372H43.244L37.6501 8.45814C37.5731 8.22652 37.5186 7.98804 37.4874 7.74599C37.4864 7.6968 37.4958 7.64796 37.5151 7.60266C37.5343 7.55737 37.5629 7.51664 37.599 7.48315C37.6351 7.44967 37.6779 7.42417 37.7245 7.40834C37.7712 7.3925 37.8207 7.38669 37.8697 7.39127C37.9479 7.38679 38.0254 7.40825 38.0902 7.45233C38.1549 7.49641 38.2032 7.56062 38.2276 7.63497L44.2311 25.9504C50.6466 20.7758 54.0741 14.3692 53.4721 6.45438C54.3982 6.24642 55.292 5.9149 56.1294 5.46875C57.6371 13.8981 54.8143 21.618 47.9622 27.3666V27.372Z" fill="#091D3F"/>
<path d="M49.1693 12.1226C50.1122 9.97196 51.2437 7.90872 52.5506 5.95703C51.9366 8.22385 51.1255 10.4328 50.1265 12.5586C49.182 14.7103 48.0505 16.7752 46.7451 18.7296C47.3574 16.4614 48.1685 14.2514 49.1693 12.1254V12.1226Z" fill="#091D3F"/>
<path d="M47.7017 11.102C48.4734 9.33488 49.4113 7.64487 50.5027 6.05469C50.021 7.91698 49.3655 9.73009 48.545 11.4702C47.773 13.2378 46.8342 14.9278 45.7412 16.5176C46.2232 14.655 46.8796 12.8418 47.7017 11.102Z" fill="#091D3F"/>
<path d="M46.4299 9.98896C47.0737 8.52292 47.8554 7.12122 48.7646 5.80273C48.3702 7.35477 47.8253 8.86473 47.1376 10.3112C46.4965 11.7772 45.7155 13.1781 44.8057 14.4947C45.2008 12.9438 45.7457 11.4348 46.4326 9.98896H46.4299Z" fill="#091D3F"/>
<path d="M45.3101 8.85197C45.8454 7.6252 46.4993 6.45351 47.2624 5.35352C46.9353 6.65125 46.4811 7.91372 45.9067 9.12275C45.3728 10.3497 44.7198 11.5215 43.957 12.6212C44.2848 11.3237 44.7389 10.0612 45.3128 8.85197H45.3101Z" fill="#091D3F"/>
<path d="M44.2832 7.72727C44.728 6.70575 45.273 5.73071 45.9101 4.81641C45.644 5.89987 45.2697 6.95395 44.793 7.96285C44.3482 8.98436 43.8032 9.95941 43.166 10.8737C43.4322 9.79025 43.8064 8.73617 44.2832 7.72727Z" fill="#091D3F"/>
<path d="M43.3496 6.66157C43.7177 5.81928 44.1672 5.01487 44.6918 4.25977C44.472 5.15216 44.1632 6.02029 43.7698 6.85111C43.3984 7.69358 42.9443 8.49721 42.4141 9.25021C42.6373 8.35938 42.947 7.4924 43.3387 6.66157H43.3496Z" fill="#091D3F"/>
<path d="M42.4764 5.61952C42.7771 4.93454 43.146 4.2814 43.5773 3.66992C43.4048 4.3981 43.1557 5.10605 42.8343 5.78199C42.536 6.46822 42.1671 7.1216 41.7334 7.73159C41.9084 7.00416 42.1574 6.29647 42.4764 5.61952Z" fill="#091D3F"/>
<path d="M42.5283 3.10547C42.3989 3.67832 42.2061 4.23503 41.9534 4.76534C41.7203 5.30393 41.4284 5.81518 41.083 6.28982C41.2129 5.71709 41.4057 5.16043 41.6579 4.62995C41.8917 4.09175 42.1836 3.58058 42.5283 3.10547Z" fill="#091D3F"/>
<path d="M94.0458 32.2637C93.8562 32.2631 93.6706 32.3189 93.5127 32.4238C93.3549 32.5288 93.2318 32.6782 93.1591 32.8531C93.0864 33.028 93.0673 33.2206 93.1044 33.4063C93.1415 33.5921 93.233 33.7626 93.3673 33.8964C93.5016 34.0301 93.6726 34.121 93.8587 34.1575C94.0448 34.1939 94.2376 34.1744 94.4126 34.1013C94.5875 34.0282 94.7368 33.9049 94.8414 33.7469C94.9461 33.5889 95.0014 33.4035 95.0003 33.2141C94.9989 32.962 94.8978 32.7207 94.719 32.5427C94.5402 32.3647 94.2983 32.2644 94.0458 32.2637ZM94.0458 33.9858C93.8937 33.9853 93.7452 33.9398 93.619 33.8551C93.4928 33.7704 93.3945 33.6503 93.3366 33.5099C93.2786 33.3694 93.2636 33.215 93.2934 33.0661C93.3232 32.9172 93.3965 32.7804 93.504 32.673C93.6115 32.5657 93.7485 32.4925 93.8976 32.4627C94.0468 32.433 94.2014 32.448 94.342 32.5058C94.4826 32.5637 94.6029 32.6618 94.6877 32.7879C94.7725 32.9139 94.8181 33.0622 94.8186 33.2141C94.8193 33.3157 94.7998 33.4163 94.7613 33.5103C94.7227 33.6042 94.6658 33.6896 94.5939 33.7614C94.522 33.8332 94.4365 33.89 94.3424 33.9285C94.2483 33.9671 94.1475 33.9865 94.0458 33.9858Z" fill="#091D3F"/>
<path d="M94.4873 32.98C94.4883 32.9386 94.4788 32.8976 94.4599 32.8607C94.441 32.8238 94.4131 32.7922 94.3789 32.7688C94.3049 32.7355 94.2239 32.7207 94.1429 32.7255H93.7227V33.6895H93.8637V33.2454H94.0345L94.3056 33.6895H94.4683L94.1755 33.2454C94.3463 33.2454 94.4819 33.1696 94.4819 32.9746L94.4873 32.98ZM94.0209 33.1235H93.8637V32.8338H94.1158C94.2351 32.8338 94.3409 32.8501 94.3409 32.9773C94.3409 33.1506 94.1565 33.1235 94.0209 33.1235Z" fill="#091D3F"/>
<path d="M87.7001 48.9488C85.4983 48.9488 84.2185 48.261 83.527 48.261V44.6786H83.8849C84.1941 46.2383 85.8047 47.3106 87.5212 47.3106C88.98 47.3106 90.1324 46.5442 90.1324 45.0089C90.1324 43.9637 89.6199 43.0431 88.2885 42.1224L86.4203 40.8444C84.8069 39.745 83.4511 38.494 83.4511 36.2411C83.4511 33.5821 85.2434 31.8708 88.2126 31.8708C89.9779 31.8708 90.7208 32.2797 91.7377 32.3826V35.4721H91.3797C91.1493 34.297 89.9209 33.3492 88.2831 33.3492C86.7457 33.3492 86.0569 34.1941 86.0569 35.3178C86.0569 36.2899 86.6453 37.0562 88.077 38.0256L89.704 39.1087C92.1878 40.7713 92.9579 41.9708 92.9579 44.0423C92.9579 47.0831 90.832 48.9488 87.711 48.9488H87.7001ZM77.1792 48.9488C74.9774 48.9488 73.7003 48.261 73.0088 48.261V44.6786H73.3668C73.6732 46.2383 75.2865 47.3106 77.0003 47.3106C78.4591 47.3106 79.6115 46.5442 79.6115 45.0089C79.6115 43.9637 79.099 43.0431 77.7703 42.1224L75.8994 40.8444C74.2887 39.745 72.9166 38.494 72.9166 36.2411C72.9166 33.5821 74.709 31.8708 77.6782 31.8708C79.4434 31.8708 80.1864 32.2797 81.2032 32.3826V35.4721H80.8453C80.6148 34.297 79.3837 33.3492 77.7487 33.3492C76.2112 33.3492 75.5197 34.1941 75.5197 35.3178C75.5197 36.2899 76.1082 37.0562 77.5426 38.0256L79.156 39.1087C81.6371 40.7713 82.4099 41.9708 82.4099 44.0423C82.4099 47.0831 80.2867 48.9488 77.163 48.9488H77.1792ZM62.8458 48.6942V48.3612C62.9733 48.2339 63.0004 47.5678 63.0004 47.2131V34.1751C63.0004 33.092 62.6425 32.5504 62.2574 32.4638V32.1307H71.2409V34.389H70.9101C70.8314 34.0072 70.0641 33.75 69.5787 33.75H66.1757V39.4363H69.0391C69.4241 39.4363 70.3216 39.3361 70.422 39.0789H70.7555V41.2262H70.422C70.2945 41.0989 69.5787 41.0475 69.1421 41.0475H66.1757V47.1048H69.5516C70.4735 47.1048 71.0375 46.7473 71.1405 46.3385H71.4714V48.7159L62.8458 48.6942ZM58.1358 48.6942L49.6649 33.7419C49.3937 33.2301 48.8514 32.5396 48.3606 32.4638V32.1307H52.4551L58.3663 42.7127V34.1751C58.3663 33.092 58.0952 32.5504 57.7264 32.4638V32.1307H60.1668V48.6942H58.1358ZM49.3341 48.6942V48.3612C49.4615 48.2339 49.4859 47.2618 49.4859 47.0831V35.659L51.2783 38.957V47.0073C51.2783 47.6463 51.4057 48.2854 51.5332 48.3612V48.6942H49.3341ZM44.6702 48.6942L36.1992 33.7419C35.928 33.2301 35.3857 32.5396 34.8949 32.4638V32.1307H38.9894L44.9006 42.7127V34.1751C44.9006 33.092 44.6295 32.5504 44.2607 32.4638V32.1307H46.7011V48.6942H44.6702ZM35.8657 48.6942V48.3612C35.9931 48.2339 36.0202 47.2618 36.0202 47.0831V35.659L37.8126 38.957V47.0073C37.8126 47.6463 37.94 48.2854 38.0675 48.3612V48.6942H35.8657ZM29.9002 48.6942V48.3612C30.0033 48.2854 30.0792 47.5678 30.0792 47.1345V34.1751C30.0792 33.092 29.7213 32.5504 29.3362 32.4638V32.1307H33.2273V46.8448C33.2273 47.7925 33.4063 48.3287 33.4985 48.353V48.6861L29.9002 48.6942ZM27.0368 45.8321C26.4213 47.9008 24.7591 48.9488 22.0719 48.9488C18.1808 48.9488 16.543 46.7825 16.543 43.4547V34.1751C16.543 33.092 16.1824 32.5504 15.8 32.4638V32.1307H19.7427V43.5305C19.7427 44.6298 19.8701 45.2174 20.1006 45.6778C20.6104 46.6742 21.5323 46.9802 22.541 46.9802C23.5904 46.9802 24.591 46.6742 25.1007 45.6778C25.3312 45.2174 25.4614 44.6298 25.4614 43.4032V34.1751C25.4614 33.092 25.1007 32.5504 24.7184 32.4638V32.1307H27.354V43.1731C27.354 44.4755 27.251 45.1931 27.0476 45.8321H27.0368ZM13.9833 40.5925V48.1743C12.2371 48.7286 10.414 49.0027 8.58182 48.9867C3.95045 49.011 0.0322266 45.6534 0.0322266 38.6484C0.0322266 32.5911 3.46237 28.5781 8.43811 28.5781C10.8785 28.5781 12.0228 29.1928 12.7387 29.1928C12.8028 29.1996 12.867 29.1812 12.9176 29.1413H13.1752V33.2572H12.7441C12.256 31.1613 10.6453 30.2407 8.85298 30.2407C5.93532 30.2407 3.55456 32.6777 3.55456 38.5211C3.55456 44.7842 6.19021 47.2618 8.95602 47.2618C9.53835 47.2882 10.1203 47.2017 10.6697 47.0073V41.0258C10.6697 40.1566 10.4392 39.0572 9.49291 38.8596V38.5021H14.1622V38.8325C14.0348 38.911 13.9833 40.0862 13.9833 40.598V40.5925Z" fill="#091D3F"/>
</g>
<defs>
<clipPath id="clip0_3168_7730">
<rect width="95" height="49" fill="white"/>
</clipPath>
</defs>
</svg>
