<svg width="24" height="24" viewBox="0 0 24 24" fill="none" xmlns="http://www.w3.org/2000/svg">
<path fill-rule="evenodd" clip-rule="evenodd" d="M12 24C18.6274 24 24 18.6274 24 12C24 5.37256 18.6274 0 12 0C5.37256 0 0 5.37256 0 12C0 18.6274 5.37256 24 12 24ZM14.8854 5.04199C14.1392 5.00708 13.9019 5 12 5C10.0981 5 9.86078 5.00903 9.11462 5.04199C8.36841 5.0769 7.86157 5.19385 7.41498 5.36743C6.94769 5.54297 6.52435 5.81836 6.17462 6.17456C5.81818 6.52417 5.54266 6.94751 5.36749 7.41504C5.19391 7.86157 5.07703 8.36841 5.04199 9.1145C5.02747 9.42505 5.01776 9.64746 5.01135 9.93823C5.00238 10.3464 5 10.8896 5 12C5 13.9019 5.00909 14.1392 5.04199 14.8855C5.06451 15.364 5.12073 15.7449 5.20404 16.0742C5.25049 16.2578 5.30536 16.4253 5.36749 16.585C5.54315 17.0522 5.8186 17.4756 6.17462 17.8254C6.52429 18.1816 6.94763 18.457 7.41498 18.6326C7.86157 18.8054 8.36908 18.9231 9.11462 18.958C9.57184 18.9795 9.83795 18.9905 10.4131 18.9956C10.7766 18.999 11.2635 19 12 19C13.9019 19 14.1392 18.991 14.8854 18.958C15.6309 18.9231 16.1391 18.8054 16.585 18.6326C17.0521 18.4565 17.4754 18.1812 17.8254 17.8254C18.1818 17.4758 18.4573 17.0525 18.6325 16.585C18.8054 16.1384 18.923 15.6309 18.958 14.8855C18.993 14.1392 19 13.9019 19 12C19 10.0981 18.9909 9.86084 18.958 9.1145C18.923 8.36914 18.8054 7.86084 18.6325 7.41504C18.4568 6.94775 18.1813 6.52441 17.8254 6.17456C17.4362 5.78613 17.047 5.54541 16.585 5.36743C16.1384 5.19385 15.6309 5.0769 14.8854 5.04199ZM9.52515 9.52515C10.1815 8.86865 11.0717 8.5 12 8.5C12.9283 8.5 13.8185 8.86865 14.4749 9.52515C15.1312 10.1814 15.5 11.0718 15.5 12C15.5 12.9282 15.1312 13.8186 14.4749 14.4749C13.8185 15.1313 12.9283 15.5 12 15.5C11.0717 15.5 10.1815 15.1313 9.52515 14.4749C8.86877 13.8186 8.5 12.9282 8.5 12C8.5 11.0718 8.86877 10.1814 9.52515 9.52515ZM16.2937 7.7063C16.4578 7.87036 16.55 8.09302 16.55 8.32495C16.55 8.55713 16.4578 8.77954 16.2937 8.9436C16.1296 9.10791 15.907 9.19995 15.675 9.19995C15.5155 9.19995 15.3605 9.15649 15.226 9.07593C15.1647 9.03931 15.1076 8.99487 15.0563 8.9436C14.936 8.82324 14.8543 8.67163 14.8193 8.50781C14.8065 8.44824 14.8 8.38696 14.8 8.32495C14.8 8.09302 14.8922 7.87036 15.0563 7.7063C15.2204 7.54224 15.4429 7.44995 15.675 7.44995C15.907 7.44995 16.1296 7.54224 16.2937 7.7063ZM13.4849 10.5151C13.0911 10.1213 12.5569 9.8999 12 9.8999C11.4431 9.8999 10.9089 10.1213 10.5151 10.5151C10.1213 10.9089 9.90002 11.4431 9.90002 12C9.90002 12.5569 10.1213 13.0911 10.5151 13.4849C10.9089 13.8787 11.4431 14.1001 12 14.1001C12.5569 14.1001 13.0911 13.8787 13.4849 13.4849C13.8787 13.0911 14.1 12.5569 14.1 12C14.1 11.4431 13.8787 10.9089 13.4849 10.5151Z" fill="white"/>
</svg>
