<svg width="29" height="29" viewBox="0 0 29 29" fill="none" xmlns="http://www.w3.org/2000/svg">
<path fill-rule="evenodd" clip-rule="evenodd" d="M14.5 29C22.5081 29 29 22.5081 29 14.5C29 6.49187 22.5081 0 14.5 0C6.49187 0 0 6.49187 0 14.5C0 22.5081 6.49187 29 14.5 29ZM6.5428 8.21473C7.00181 8.10558 7.34693 8.05382 7.9424 8.00478C8.12319 7.98991 8.91749 8.01208 9.16353 8.03889C10.4006 8.17362 11.5694 8.59075 12.5695 9.25434C13.2983 9.73788 13.992 10.4109 14.4774 11.1053C15.1511 12.0691 15.5298 13.0525 15.6824 14.2346C15.7298 14.6023 15.7298 15.409 15.6824 15.7767C15.5298 16.9586 15.1296 17.9838 14.4465 18.9425C13.2169 20.6681 11.2166 21.788 9.02043 21.9805C8.68815 22.0096 7.94565 22.0054 7.61867 21.9726C6.49094 21.8595 5.39618 21.5043 4.46347 20.9488C2.57247 19.8226 1.33396 17.9825 1.04343 15.8674C1.00124 15.5602 0.985579 14.7443 1.01544 14.4102C1.08249 13.6605 1.28151 12.9165 1.60664 12.2003C2.49991 10.2325 4.35448 8.73512 6.5428 8.21473ZM17.8669 9.58885C18.4044 8.91 18.9992 8.50913 19.6671 8.37561C20.2498 8.25914 20.9037 8.4157 21.4607 8.80501C21.6778 8.95678 22.0683 9.32971 22.2452 9.5542C23.0922 10.6293 23.6124 12.1085 23.8018 13.9807C23.8357 14.3153 23.8354 15.7004 23.8014 16.0306C23.6469 17.5306 23.296 18.738 22.7232 19.7405C22.3709 20.3571 21.8999 20.8994 21.4503 21.2061C21.2283 21.3575 20.8678 21.5292 20.6447 21.5898C20.2723 21.691 19.8629 21.6909 19.4893 21.5894C19.2678 21.5292 18.9069 21.3571 18.6852 21.2061C18.3297 20.9638 17.9001 20.5064 17.6069 20.058C17.4683 19.8461 17.2083 19.3676 17.0996 19.1242C16.7083 18.2483 16.4515 17.2074 16.3342 16.0216C16.3003 15.6797 16.3001 14.3138 16.3338 13.9807C16.5206 12.1353 17.0487 10.6222 17.8669 9.58885ZM24.362 12.8559C24.5453 10.7534 24.9904 9.26613 25.5026 9.04502C25.6578 8.97801 25.7891 9.01656 25.9457 9.17517C26.6007 9.83869 27.0385 12.4097 26.9973 15.3503C26.9829 16.3765 26.9428 17.0132 26.8399 17.8448C26.5727 20.0045 26.0407 21.2203 25.4816 20.9491C25.0251 20.7277 24.6114 19.4485 24.4101 17.6361C24.3032 16.6732 24.2669 15.8416 24.2809 14.6791C24.2916 13.79 24.3031 13.5321 24.362 12.8559Z" fill="white"/>
</svg>
